<svg width="670" height="166" viewBox="0 0 670 166" fill="none" xmlns="http://www.w3.org/2000/svg">
<path d="M99.872 120C98.9333 120 98.1653 119.701 97.568 119.104C96.9707 118.507 96.672 117.739 96.672 116.8V50.496H73.888C72.9493 50.496 72.1813 50.1973 71.584 49.6C70.9867 48.9173 70.688 48.1493 70.688 47.296V33.6C70.688 32.6613 70.9867 31.8933 71.584 31.296C72.1813 30.6987 72.9493 30.4 73.888 30.4H142.752C143.691 30.4 144.459 30.6987 145.056 31.296C145.653 31.8933 145.952 32.6613 145.952 33.6V47.296C145.952 48.1493 145.653 48.9173 145.056 49.6C144.459 50.1973 143.691 50.496 142.752 50.496H119.968V116.8C119.968 117.739 119.669 118.507 119.072 119.104C118.475 119.701 117.707 120 116.768 120H99.872ZM175.647 121.28C165.578 121.28 157.556 118.549 151.583 113.088C145.61 107.627 142.495 99.52 142.239 88.768C142.239 88.1707 142.239 87.4027 142.239 86.464C142.239 85.5253 142.239 84.8 142.239 84.288C142.495 77.5467 143.988 71.7867 146.719 67.008C149.535 62.144 153.375 58.4747 158.239 56C163.188 53.44 168.948 52.16 175.519 52.16C183.028 52.16 189.215 53.6533 194.079 56.64C199.028 59.6267 202.74 63.68 205.215 68.8C207.69 73.92 208.927 79.7653 208.927 86.336V89.408C208.927 90.3467 208.586 91.1147 207.903 91.712C207.306 92.3093 206.58 92.608 205.727 92.608H164.767C164.767 92.6933 164.767 92.8213 164.767 92.992C164.767 93.1627 164.767 93.3333 164.767 93.504C164.852 95.9787 165.279 98.24 166.047 100.288C166.815 102.336 168.01 103.957 169.631 105.152C171.252 106.347 173.215 106.944 175.519 106.944C177.226 106.944 178.634 106.688 179.743 106.176C180.938 105.579 181.919 104.939 182.687 104.256C183.455 103.488 184.052 102.848 184.479 102.336C185.247 101.483 185.844 100.971 186.271 100.8C186.783 100.544 187.551 100.416 188.575 100.416H204.447C205.3 100.416 205.983 100.672 206.495 101.184C207.092 101.611 207.348 102.251 207.263 103.104C207.178 104.555 206.452 106.304 205.087 108.352C203.722 110.4 201.716 112.448 199.071 114.496C196.511 116.459 193.268 118.08 189.343 119.36C185.418 120.64 180.852 121.28 175.647 121.28ZM164.767 79.936H186.399V79.68C186.399 76.9493 185.972 74.56 185.119 72.512C184.351 70.464 183.114 68.8853 181.407 67.776C179.786 66.6667 177.823 66.112 175.519 66.112C173.215 66.112 171.252 66.6667 169.631 67.776C168.095 68.8853 166.9 70.464 166.047 72.512C165.194 74.56 164.767 76.9493 164.767 79.68V79.936ZM248.319 121.28C242.772 121.28 238.036 120.683 234.111 119.488C230.271 118.208 227.114 116.672 224.639 114.88C222.25 113.088 220.458 111.253 219.263 109.376C218.068 107.413 217.428 105.749 217.343 104.384C217.258 103.445 217.556 102.677 218.239 102.08C218.922 101.397 219.647 101.056 220.415 101.056H235.007C235.263 101.056 235.476 101.099 235.647 101.184C235.818 101.269 236.074 101.44 236.415 101.696C237.524 102.293 238.634 103.061 239.743 104C240.852 104.853 242.132 105.621 243.583 106.304C245.034 106.987 246.783 107.328 248.831 107.328C251.22 107.328 253.226 106.859 254.847 105.92C256.468 104.981 257.279 103.573 257.279 101.696C257.279 100.331 256.895 99.2213 256.127 98.368C255.359 97.4293 253.78 96.5333 251.391 95.68C249.087 94.8267 245.588 93.9733 240.895 93.12C236.458 92.096 232.575 90.7733 229.247 89.152C225.919 87.4453 223.359 85.2693 221.567 82.624C219.775 79.8933 218.879 76.608 218.879 72.768C218.879 69.3547 219.988 66.0693 222.207 62.912C224.426 59.7547 227.668 57.1947 231.935 55.232C236.202 53.184 241.45 52.16 247.679 52.16C252.628 52.16 256.895 52.7573 260.479 53.952C264.148 55.0613 267.22 56.512 269.695 58.304C272.255 60.096 274.175 61.9307 275.455 63.808C276.735 65.6853 277.418 67.392 277.503 68.928C277.588 69.7813 277.332 70.5493 276.735 71.232C276.138 71.8293 275.455 72.128 274.687 72.128H261.375C261.034 72.128 260.692 72.0853 260.351 72C260.01 71.8293 259.711 71.6587 259.455 71.488C258.431 70.976 257.407 70.2933 256.383 69.44C255.359 68.5867 254.164 67.8187 252.799 67.136C251.434 66.4533 249.727 66.112 247.679 66.112C245.375 66.112 243.583 66.624 242.303 67.648C241.023 68.672 240.383 69.9947 240.383 71.616C240.383 72.7253 240.724 73.7493 241.407 74.688C242.175 75.6267 243.668 76.48 245.887 77.248C248.191 78.016 251.732 78.8693 256.511 79.808C262.399 80.7467 267.092 82.2827 270.591 84.416C274.09 86.464 276.564 88.896 278.015 91.712C279.466 94.4427 280.191 97.344 280.191 100.416C280.191 104.512 278.954 108.139 276.479 111.296C274.09 114.453 270.506 116.928 265.727 118.72C260.948 120.427 255.146 121.28 248.319 121.28ZM325.35 120C319.889 120 315.153 119.147 311.142 117.44C307.217 115.648 304.187 112.917 302.054 109.248C299.921 105.493 298.854 100.672 298.854 94.784V70.208H288.87C287.931 70.208 287.121 69.9093 286.438 69.312C285.841 68.7147 285.542 67.9467 285.542 67.008V56.64C285.542 55.7013 285.841 54.9333 286.438 54.336C287.121 53.7387 287.931 53.44 288.87 53.44H298.854V32.32C298.854 31.3813 299.153 30.6133 299.75 30.016C300.433 29.4187 301.201 29.12 302.054 29.12H316.902C317.841 29.12 318.609 29.4187 319.206 30.016C319.803 30.6133 320.102 31.3813 320.102 32.32V53.44H336.102C337.041 53.44 337.809 53.7387 338.406 54.336C339.003 54.9333 339.302 55.7013 339.302 56.64V67.008C339.302 67.9467 339.003 68.7147 338.406 69.312C337.809 69.9093 337.041 70.208 336.102 70.208H320.102V92.992C320.102 95.8933 320.657 98.1973 321.766 99.904C322.875 101.611 324.753 102.464 327.398 102.464H337.254C338.193 102.464 338.961 102.763 339.558 103.36C340.155 103.957 340.454 104.725 340.454 105.664V116.8C340.454 117.739 340.155 118.507 339.558 119.104C338.961 119.701 338.193 120 337.254 120H325.35ZM355.02 120C354.167 120 353.441 119.744 352.844 119.232C352.332 118.635 352.076 117.909 352.076 117.056V107.84C352.076 106.987 352.332 106.304 352.844 105.792C353.441 105.195 354.167 104.896 355.02 104.896H364.236C365.089 104.896 365.772 105.195 366.284 105.792C366.881 106.304 367.18 106.987 367.18 107.84V117.056C367.18 117.909 366.881 118.635 366.284 119.232C365.772 119.744 365.089 120 364.236 120H355.02Z" fill="#5030E5"/>
<path d="M411.206 120C406.427 120 402.545 119.104 399.558 117.312C396.571 115.435 394.395 112.832 393.03 109.504C391.665 106.091 390.982 102.08 390.982 97.472V63.68H380.998C380.145 63.68 379.419 63.424 378.822 62.912C378.31 62.3147 378.054 61.5893 378.054 60.736V56.384C378.054 55.5307 378.31 54.848 378.822 54.336C379.419 53.7387 380.145 53.44 380.998 53.44H390.982V32.064C390.982 31.2107 391.238 30.528 391.75 30.016C392.347 29.4187 393.073 29.12 393.926 29.12H399.942C400.795 29.12 401.478 29.4187 401.99 30.016C402.587 30.528 402.886 31.2107 402.886 32.064V53.44H418.758C419.611 53.44 420.294 53.7387 420.806 54.336C421.403 54.848 421.702 55.5307 421.702 56.384V60.736C421.702 61.5893 421.403 62.3147 420.806 62.912C420.294 63.424 419.611 63.68 418.758 63.68H402.886V96.576C402.886 100.587 403.569 103.744 404.934 106.048C406.299 108.352 408.731 109.504 412.23 109.504H420.038C420.891 109.504 421.574 109.803 422.086 110.4C422.683 110.912 422.982 111.595 422.982 112.448V117.056C422.982 117.909 422.683 118.635 422.086 119.232C421.574 119.744 420.891 120 420.038 120H411.206ZM438.294 120C437.441 120 436.715 119.744 436.118 119.232C435.606 118.635 435.35 117.909 435.35 117.056V32.064C435.35 31.2107 435.606 30.528 436.118 30.016C436.715 29.4187 437.441 29.12 438.294 29.12H444.694C445.633 29.12 446.358 29.4187 446.87 30.016C447.382 30.528 447.638 31.2107 447.638 32.064V61.888C449.942 58.9867 452.758 56.64 456.086 54.848C459.414 53.056 463.638 52.16 468.758 52.16C474.305 52.16 478.998 53.3973 482.838 55.872C486.763 58.2613 489.707 61.632 491.67 65.984C493.718 70.2507 494.742 75.2427 494.742 80.96V117.056C494.742 117.909 494.486 118.635 493.974 119.232C493.462 119.744 492.737 120 491.798 120H485.398C484.545 120 483.819 119.744 483.222 119.232C482.71 118.635 482.454 117.909 482.454 117.056V81.6C482.454 75.6267 481.003 70.976 478.102 67.648C475.201 64.2347 470.934 62.528 465.302 62.528C460.011 62.528 455.745 64.2347 452.502 67.648C449.259 70.976 447.638 75.6267 447.638 81.6V117.056C447.638 117.909 447.382 118.635 446.87 119.232C446.358 119.744 445.633 120 444.694 120H438.294ZM516.166 120C515.313 120 514.587 119.744 513.99 119.232C513.478 118.635 513.222 117.909 513.222 117.056V56.384C513.222 55.5307 513.478 54.848 513.99 54.336C514.587 53.7387 515.313 53.44 516.166 53.44H522.31C523.163 53.44 523.846 53.7387 524.358 54.336C524.87 54.848 525.126 55.5307 525.126 56.384V117.056C525.126 117.909 524.87 118.635 524.358 119.232C523.846 119.744 523.163 120 522.31 120H516.166ZM515.142 41.024C514.289 41.024 513.563 40.768 512.966 40.256C512.454 39.6587 512.198 38.9333 512.198 38.08V31.168C512.198 30.3147 512.454 29.632 512.966 29.12C513.563 28.5227 514.289 28.224 515.142 28.224H523.206C524.059 28.224 524.742 28.5227 525.254 29.12C525.851 29.632 526.15 30.3147 526.15 31.168V38.08C526.15 38.9333 525.851 39.6587 525.254 40.256C524.742 40.768 524.059 41.024 523.206 41.024H515.142ZM568.012 121.28C563.233 121.28 559.137 120.683 555.724 119.488C552.311 118.293 549.537 116.843 547.404 115.136C545.271 113.429 543.649 111.723 542.54 110.016C541.516 108.309 540.961 106.944 540.876 105.92C540.791 104.981 541.089 104.256 541.772 103.744C542.455 103.232 543.137 102.976 543.82 102.976H549.452C549.964 102.976 550.348 103.061 550.604 103.232C550.945 103.317 551.372 103.659 551.884 104.256C552.993 105.451 554.231 106.645 555.596 107.84C556.961 109.035 558.625 110.016 560.588 110.784C562.636 111.552 565.153 111.936 568.14 111.936C572.492 111.936 576.076 111.125 578.892 109.504C581.708 107.797 583.116 105.323 583.116 102.08C583.116 99.9467 582.519 98.24 581.324 96.96C580.215 95.68 578.167 94.528 575.18 93.504C572.279 92.48 568.268 91.4133 563.148 90.304C558.028 89.1093 553.975 87.6587 550.988 85.952C548.001 84.16 545.868 82.0693 544.588 79.68C543.308 77.2053 542.668 74.432 542.668 71.36C542.668 68.2027 543.607 65.1733 545.484 62.272C547.361 59.2853 550.092 56.8533 553.676 54.976C557.345 53.0987 561.911 52.16 567.372 52.16C571.809 52.16 575.607 52.7147 578.764 53.824C581.921 54.9333 584.524 56.3413 586.572 58.048C588.62 59.6693 590.156 61.2907 591.18 62.912C592.204 64.5333 592.759 65.8987 592.844 67.008C592.929 67.8613 592.673 68.5867 592.076 69.184C591.479 69.696 590.796 69.952 590.028 69.952H584.652C584.055 69.952 583.543 69.824 583.116 69.568C582.775 69.312 582.433 69.0133 582.092 68.672C581.239 67.5627 580.215 66.4533 579.02 65.344C577.911 64.2347 576.417 63.3387 574.54 62.656C572.748 61.888 570.359 61.504 567.372 61.504C563.105 61.504 559.905 62.4 557.772 64.192C555.639 65.984 554.572 68.2453 554.572 70.976C554.572 72.5973 555.041 74.048 555.98 75.328C556.919 76.608 558.711 77.76 561.356 78.784C564.001 79.808 567.927 80.9173 573.132 82.112C578.764 83.2213 583.201 84.7147 586.444 86.592C589.687 88.4693 591.991 90.6453 593.356 93.12C594.721 95.5947 595.404 98.4533 595.404 101.696C595.404 105.28 594.337 108.565 592.204 111.552C590.156 114.539 587.084 116.928 582.988 118.72C578.977 120.427 573.985 121.28 568.012 121.28Z" fill="black"/>
<path d="M539.944 160.24C538.984 160.24 538.184 160.072 537.544 159.736C536.904 159.384 536.392 158.952 536.008 158.44V159.448C536.008 159.608 535.952 159.744 535.84 159.856C535.744 159.952 535.616 160 535.456 160H534.352C534.192 160 534.056 159.952 533.944 159.856C533.848 159.744 533.8 159.608 533.8 159.448V143.512C533.8 143.352 533.848 143.224 533.944 143.128C534.056 143.016 534.192 142.96 534.352 142.96H535.504C535.68 142.96 535.816 143.016 535.912 143.128C536.008 143.224 536.056 143.352 536.056 143.512V149.032C536.456 148.536 536.968 148.12 537.592 147.784C538.232 147.448 539.016 147.28 539.944 147.28C540.84 147.28 541.6 147.44 542.224 147.76C542.864 148.064 543.384 148.488 543.784 149.032C544.2 149.576 544.512 150.192 544.72 150.88C544.928 151.568 545.04 152.288 545.056 153.04C545.072 153.296 545.08 153.536 545.08 153.76C545.08 153.984 545.072 154.224 545.056 154.48C545.04 155.248 544.928 155.976 544.72 156.664C544.512 157.352 544.2 157.968 543.784 158.512C543.384 159.04 542.864 159.464 542.224 159.784C541.6 160.088 540.84 160.24 539.944 160.24ZM539.44 158.296C540.272 158.296 540.92 158.12 541.384 157.768C541.864 157.4 542.208 156.928 542.416 156.352C542.624 155.76 542.744 155.128 542.776 154.456C542.792 153.992 542.792 153.528 542.776 153.064C542.744 152.392 542.624 151.768 542.416 151.192C542.208 150.6 541.864 150.128 541.384 149.776C540.92 149.408 540.272 149.224 539.44 149.224C538.688 149.224 538.064 149.4 537.568 149.752C537.072 150.104 536.696 150.552 536.44 151.096C536.2 151.64 536.072 152.192 536.056 152.752C536.04 153.008 536.032 153.32 536.032 153.688C536.032 154.04 536.04 154.344 536.056 154.6C536.088 155.192 536.216 155.776 536.44 156.352C536.68 156.912 537.04 157.376 537.52 157.744C538.016 158.112 538.656 158.296 539.44 158.296ZM549.765 164.56C549.637 164.56 549.525 164.512 549.429 164.416C549.333 164.32 549.285 164.208 549.285 164.08C549.285 164.016 549.293 163.952 549.309 163.888C549.325 163.824 549.357 163.744 549.405 163.648L551.253 159.256L546.669 148.432C546.589 148.24 546.549 148.104 546.549 148.024C546.549 147.88 546.597 147.76 546.693 147.664C546.789 147.568 546.909 147.52 547.053 147.52H548.229C548.389 147.52 548.517 147.56 548.613 147.64C548.709 147.72 548.773 147.816 548.805 147.928L552.453 156.664L556.197 147.928C556.245 147.816 556.309 147.72 556.389 147.64C556.485 147.56 556.621 147.52 556.797 147.52H557.925C558.069 147.52 558.189 147.568 558.285 147.664C558.381 147.76 558.429 147.872 558.429 148C558.429 148.08 558.389 148.224 558.309 148.432L551.493 164.152C551.445 164.264 551.373 164.36 551.277 164.44C551.197 164.52 551.069 164.56 550.893 164.56H549.765ZM571.761 160.24C570.369 160.24 569.201 160.032 568.257 159.616C567.313 159.184 566.585 158.632 566.073 157.96C565.577 157.272 565.313 156.544 565.281 155.776C565.281 155.648 565.329 155.536 565.425 155.44C565.537 155.328 565.665 155.272 565.809 155.272H567.033C567.225 155.272 567.369 155.32 567.465 155.416C567.561 155.512 567.625 155.624 567.657 155.752C567.737 156.136 567.929 156.52 568.233 156.904C568.553 157.272 568.993 157.584 569.553 157.84C570.129 158.08 570.865 158.2 571.761 158.2C573.137 158.2 574.145 157.96 574.785 157.48C575.441 156.984 575.769 156.328 575.769 155.512C575.769 154.952 575.593 154.504 575.241 154.168C574.905 153.816 574.385 153.504 573.681 153.232C572.977 152.96 572.065 152.664 570.945 152.344C569.777 152.008 568.809 151.64 568.041 151.24C567.273 150.84 566.697 150.344 566.313 149.752C565.945 149.16 565.761 148.408 565.761 147.496C565.761 146.632 565.993 145.864 566.457 145.192C566.921 144.504 567.585 143.96 568.449 143.56C569.329 143.16 570.393 142.96 571.641 142.96C572.633 142.96 573.497 143.096 574.233 143.368C574.985 143.624 575.609 143.976 576.105 144.424C576.601 144.856 576.977 145.328 577.233 145.84C577.489 146.336 577.625 146.824 577.641 147.304C577.641 147.416 577.601 147.528 577.521 147.64C577.441 147.736 577.313 147.784 577.137 147.784H575.865C575.753 147.784 575.633 147.752 575.505 147.688C575.393 147.624 575.305 147.504 575.241 147.328C575.145 146.672 574.777 146.12 574.137 145.672C573.497 145.224 572.665 145 571.641 145C570.601 145 569.753 145.2 569.097 145.6C568.457 146 568.137 146.624 568.137 147.472C568.137 148.016 568.289 148.472 568.593 148.84C568.897 149.192 569.377 149.504 570.033 149.776C570.689 150.048 571.545 150.336 572.601 150.64C573.881 150.992 574.929 151.368 575.745 151.768C576.561 152.152 577.161 152.64 577.545 153.232C577.945 153.808 578.145 154.552 578.145 155.464C578.145 156.472 577.881 157.336 577.353 158.056C576.825 158.76 576.081 159.304 575.121 159.688C574.177 160.056 573.057 160.24 571.761 160.24ZM585.947 160.24C584.299 160.24 582.987 159.736 582.011 158.728C581.035 157.704 580.499 156.312 580.403 154.552C580.387 154.344 580.379 154.08 580.379 153.76C580.379 153.424 580.387 153.152 580.403 152.944C580.467 151.808 580.731 150.816 581.195 149.968C581.659 149.104 582.291 148.44 583.091 147.976C583.907 147.512 584.859 147.28 585.947 147.28C587.163 147.28 588.179 147.536 588.995 148.048C589.827 148.56 590.459 149.288 590.891 150.232C591.323 151.176 591.539 152.28 591.539 153.544V153.952C591.539 154.128 591.483 154.264 591.371 154.36C591.275 154.456 591.147 154.504 590.987 154.504H582.683C582.683 154.52 582.683 154.552 582.683 154.6C582.683 154.648 582.683 154.688 582.683 154.72C582.715 155.376 582.859 155.992 583.115 156.568C583.371 157.128 583.739 157.584 584.219 157.936C584.699 158.288 585.275 158.464 585.947 158.464C586.523 158.464 587.003 158.376 587.387 158.2C587.771 158.024 588.083 157.832 588.323 157.624C588.563 157.4 588.723 157.232 588.803 157.12C588.947 156.912 589.059 156.792 589.139 156.76C589.219 156.712 589.347 156.688 589.523 156.688H590.675C590.835 156.688 590.963 156.736 591.059 156.832C591.171 156.912 591.219 157.032 591.203 157.192C591.187 157.432 591.059 157.728 590.819 158.08C590.579 158.416 590.235 158.752 589.787 159.088C589.339 159.424 588.795 159.704 588.155 159.928C587.515 160.136 586.779 160.24 585.947 160.24ZM582.683 152.848H589.259V152.776C589.259 152.056 589.123 151.416 588.851 150.856C588.595 150.296 588.219 149.856 587.723 149.536C587.227 149.2 586.635 149.032 585.947 149.032C585.259 149.032 584.667 149.2 584.171 149.536C583.691 149.856 583.323 150.296 583.067 150.856C582.811 151.416 582.683 152.056 582.683 152.776V152.848ZM594.961 160C594.801 160 594.665 159.952 594.553 159.856C594.457 159.744 594.409 159.608 594.409 159.448V148.096C594.409 147.936 594.457 147.8 594.553 147.688C594.665 147.576 594.801 147.52 594.961 147.52H596.065C596.225 147.52 596.361 147.576 596.473 147.688C596.585 147.8 596.641 147.936 596.641 148.096V149.152C596.961 148.608 597.401 148.2 597.961 147.928C598.521 147.656 599.193 147.52 599.977 147.52H600.937C601.097 147.52 601.225 147.576 601.321 147.688C601.417 147.784 601.465 147.912 601.465 148.072V149.056C601.465 149.216 601.417 149.344 601.321 149.44C601.225 149.536 601.097 149.584 600.937 149.584H599.497C598.633 149.584 597.953 149.84 597.457 150.352C596.961 150.848 596.713 151.528 596.713 152.392V159.448C596.713 159.608 596.657 159.744 596.545 159.856C596.433 159.952 596.297 160 596.137 160H594.961ZM608.38 165.28C607.292 165.28 606.396 165.136 605.692 164.848C605.004 164.56 604.46 164.208 604.06 163.792C603.676 163.392 603.396 162.984 603.22 162.568C603.06 162.168 602.972 161.848 602.956 161.608C602.94 161.448 602.988 161.312 603.1 161.2C603.228 161.088 603.364 161.032 603.508 161.032H604.66C604.804 161.032 604.924 161.064 605.02 161.128C605.116 161.192 605.196 161.328 605.26 161.536C605.356 161.776 605.5 162.04 605.692 162.328C605.884 162.632 606.18 162.888 606.58 163.096C606.98 163.32 607.54 163.432 608.26 163.432C609.012 163.432 609.644 163.328 610.156 163.12C610.668 162.928 611.052 162.576 611.308 162.064C611.58 161.568 611.716 160.88 611.716 160V158.368C611.332 158.864 610.828 159.28 610.204 159.616C609.58 159.936 608.796 160.096 607.852 160.096C606.956 160.096 606.188 159.944 605.548 159.64C604.908 159.32 604.38 158.896 603.964 158.368C603.564 157.824 603.26 157.208 603.052 156.52C602.86 155.832 602.748 155.112 602.716 154.36C602.7 153.912 602.7 153.472 602.716 153.04C602.748 152.288 602.86 151.568 603.052 150.88C603.26 150.192 603.564 149.576 603.964 149.032C604.38 148.488 604.908 148.064 605.548 147.76C606.188 147.44 606.956 147.28 607.852 147.28C608.812 147.28 609.604 147.464 610.228 147.832C610.868 148.184 611.388 148.616 611.788 149.128V148.096C611.788 147.936 611.836 147.8 611.932 147.688C612.044 147.576 612.18 147.52 612.34 147.52H613.444C613.604 147.52 613.74 147.576 613.852 147.688C613.964 147.8 614.02 147.936 614.02 148.096V159.736C614.02 160.808 613.836 161.76 613.468 162.592C613.116 163.424 612.524 164.08 611.692 164.56C610.876 165.04 609.772 165.28 608.38 165.28ZM608.332 158.176C609.132 158.176 609.772 157.992 610.252 157.624C610.748 157.256 611.108 156.792 611.332 156.232C611.572 155.672 611.7 155.104 611.716 154.528C611.732 154.304 611.74 154.032 611.74 153.712C611.74 153.376 611.732 153.096 611.716 152.872C611.7 152.296 611.572 151.728 611.332 151.168C611.108 150.608 610.748 150.144 610.252 149.776C609.772 149.408 609.132 149.224 608.332 149.224C607.532 149.224 606.892 149.408 606.412 149.776C605.932 150.128 605.588 150.6 605.38 151.192C605.172 151.768 605.052 152.392 605.02 153.064C605.004 153.48 605.004 153.904 605.02 154.336C605.052 155.008 605.172 155.64 605.38 156.232C605.588 156.808 605.932 157.28 606.412 157.648C606.892 158 607.532 158.176 608.332 158.176ZM622.557 160.24C620.909 160.24 619.597 159.736 618.621 158.728C617.645 157.704 617.109 156.312 617.013 154.552C616.997 154.344 616.989 154.08 616.989 153.76C616.989 153.424 616.997 153.152 617.013 152.944C617.077 151.808 617.341 150.816 617.805 149.968C618.269 149.104 618.901 148.44 619.701 147.976C620.517 147.512 621.469 147.28 622.557 147.28C623.773 147.28 624.789 147.536 625.605 148.048C626.437 148.56 627.069 149.288 627.501 150.232C627.933 151.176 628.148 152.28 628.148 153.544V153.952C628.148 154.128 628.093 154.264 627.981 154.36C627.885 154.456 627.757 154.504 627.597 154.504H619.293C619.293 154.52 619.293 154.552 619.293 154.6C619.293 154.648 619.293 154.688 619.293 154.72C619.325 155.376 619.469 155.992 619.725 156.568C619.981 157.128 620.349 157.584 620.829 157.936C621.309 158.288 621.885 158.464 622.557 158.464C623.133 158.464 623.613 158.376 623.997 158.2C624.381 158.024 624.693 157.832 624.933 157.624C625.173 157.4 625.333 157.232 625.413 157.12C625.557 156.912 625.669 156.792 625.749 156.76C625.829 156.712 625.957 156.688 626.133 156.688H627.285C627.445 156.688 627.573 156.736 627.669 156.832C627.781 156.912 627.829 157.032 627.812 157.192C627.797 157.432 627.669 157.728 627.429 158.08C627.189 158.416 626.845 158.752 626.397 159.088C625.949 159.424 625.405 159.704 624.765 159.928C624.125 160.136 623.389 160.24 622.557 160.24ZM619.293 152.848H625.869V152.776C625.869 152.056 625.733 151.416 625.461 150.856C625.205 150.296 624.829 149.856 624.333 149.536C623.837 149.2 623.245 149.032 622.557 149.032C621.869 149.032 621.277 149.2 620.781 149.536C620.301 149.856 619.933 150.296 619.677 150.856C619.421 151.416 619.293 152.056 619.293 152.776V152.848ZM632.733 164.56C632.605 164.56 632.493 164.512 632.397 164.416C632.301 164.32 632.253 164.208 632.253 164.08C632.253 164.016 632.261 163.952 632.277 163.888C632.293 163.824 632.325 163.744 632.373 163.648L634.221 159.256L629.637 148.432C629.557 148.24 629.517 148.104 629.517 148.024C629.517 147.88 629.565 147.76 629.661 147.664C629.757 147.568 629.877 147.52 630.021 147.52H631.197C631.357 147.52 631.485 147.56 631.581 147.64C631.677 147.72 631.741 147.816 631.773 147.928L635.421 156.664L639.165 147.928C639.213 147.816 639.277 147.72 639.357 147.64C639.453 147.56 639.589 147.52 639.765 147.52H640.893C641.037 147.52 641.157 147.568 641.253 147.664C641.349 147.76 641.397 147.872 641.397 148C641.397 148.08 641.357 148.224 641.277 148.432L634.461 164.152C634.413 164.264 634.341 164.36 634.245 164.44C634.165 164.52 634.037 164.56 633.861 164.56H632.733ZM649.882 160C649.706 160 649.57 159.952 649.474 159.856C649.378 159.744 649.33 159.608 649.33 159.448V143.776C649.33 143.6 649.378 143.464 649.474 143.368C649.57 143.256 649.706 143.2 649.882 143.2H656.458C657.658 143.2 658.634 143.4 659.386 143.8C660.154 144.184 660.714 144.712 661.066 145.384C661.434 146.056 661.618 146.808 661.618 147.64C661.618 148.296 661.506 148.864 661.282 149.344C661.074 149.808 660.81 150.192 660.49 150.496C660.17 150.784 659.858 151.008 659.554 151.168C660.178 151.472 660.73 151.968 661.21 152.656C661.706 153.344 661.954 154.176 661.954 155.152C661.954 156.032 661.754 156.84 661.354 157.576C660.954 158.312 660.354 158.904 659.554 159.352C658.77 159.784 657.794 160 656.626 160H649.882ZM651.682 158.056H656.314C657.354 158.056 658.154 157.776 658.714 157.216C659.274 156.656 659.554 155.968 659.554 155.152C659.554 154.304 659.274 153.608 658.714 153.064C658.154 152.504 657.354 152.224 656.314 152.224H651.682V158.056ZM651.682 150.304H656.098C657.122 150.304 657.898 150.072 658.426 149.608C658.954 149.128 659.218 148.48 659.218 147.664C659.218 146.848 658.954 146.224 658.426 145.792C657.898 145.36 657.122 145.144 656.098 145.144H651.682V150.304ZM665.199 160C665.039 160 664.903 159.952 664.791 159.856C664.695 159.744 664.647 159.608 664.647 159.448V157.72C664.647 157.56 664.695 157.432 664.791 157.336C664.903 157.224 665.039 157.168 665.199 157.168H666.927C667.087 157.168 667.215 157.224 667.311 157.336C667.423 157.432 667.479 157.56 667.479 157.72V159.448C667.479 159.608 667.423 159.744 667.311 159.856C667.215 159.952 667.087 160 666.927 160H665.199Z" fill="#333333"/>
</svg>
