<svg width="98" height="31" viewBox="0 0 98 31" fill="none" xmlns="http://www.w3.org/2000/svg">
<path d="M0.142208 14.7593C-0.266859 15.7853 0.233289 16.9487 1.25932 17.3578C2.28535 17.7669 3.44873 17.2667 3.85779 16.2407L0.142208 14.7593ZM18 6L18 8L18 6ZM62 6L62 8L62 6ZM97.4142 16.9142C98.1953 16.1332 98.1953 14.8668 97.4142 14.0858L84.6863 1.35786C83.9052 0.576816 82.6389 0.576816 81.8579 1.35786C81.0768 2.13891 81.0768 3.40524 81.8579 4.18629L93.1716 15.5L81.8579 26.8137C81.0768 27.5948 81.0768 28.8611 81.8579 29.6421C82.6389 30.4232 83.9052 30.4232 84.6863 29.6421L97.4142 16.9142ZM4.85678 14.4915C5.48009 13.5796 5.24613 12.335 4.33423 11.7117C3.42233 11.0884 2.1778 11.3224 1.55449 12.2343L4.85678 14.4915ZM5.2891 8.20691C4.42698 8.89743 4.28787 10.1561 4.97839 11.0182C5.66891 11.8803 6.92758 12.0195 7.7897 11.3289L5.2891 8.20691ZM11.5164 9.16521C12.5427 8.75706 13.0439 7.59413 12.6358 6.56773C12.2276 5.54134 11.0647 5.04016 10.0383 5.44831L11.5164 9.16521ZM15.3169 4.1476C14.2192 4.27132 13.4297 5.2614 13.5534 6.35902C13.6772 7.45664 14.6672 8.24615 15.7649 8.12244L15.3169 4.1476ZM21.0954 8.43779C22.1481 8.77217 23.2726 8.18983 23.607 7.13709C23.9414 6.08435 23.359 4.95986 22.3063 4.62548L21.0954 8.43779ZM29.0985 9.94262C28.4637 9.03863 27.2164 8.82036 26.3124 9.45509C25.4084 10.0898 25.1901 11.3372 25.8248 12.2412L29.0985 9.94262ZM29.6409 18.6007C30.241 19.5281 31.4792 19.7934 32.4066 19.1933C33.3339 18.5932 33.5992 17.355 32.9992 16.4277L29.6409 18.6007ZM37.5017 20.5175C36.4642 20.1385 35.3159 20.6724 34.937 21.7099C34.558 22.7474 35.0918 23.8957 36.1294 24.2747L37.5017 20.5175ZM44.6758 24.3717C45.7272 24.0331 46.3051 22.9064 45.9666 21.8549C45.6281 20.8035 44.5013 20.2256 43.4499 20.5641L44.6758 24.3717ZM48.242 16.9979C47.5476 17.8569 47.681 19.1162 48.54 19.8106C49.399 20.505 50.6583 20.3716 51.3527 19.5126L48.242 16.9979ZM55.4667 13.2931C56.0543 12.3578 55.7723 11.1232 54.837 10.5357C53.9017 9.94812 52.6671 10.2301 52.0796 11.1654L55.4667 13.2931ZM57.5525 5.16417C56.5931 5.7116 56.2592 6.93311 56.8066 7.89248C57.354 8.85185 58.5755 9.18579 59.5349 8.63836L57.5525 5.16417ZM64.2881 8.23638C65.3676 8.47065 66.4326 7.78551 66.6668 6.70606C66.9011 5.62662 66.2159 4.56165 65.1365 4.32738L64.2881 8.23638ZM70.7971 6.94543C69.9027 6.29728 68.6522 6.4969 68.0041 7.39131C67.3559 8.28572 67.5556 9.53622 68.45 10.1844L70.7971 6.94543ZM72.4405 13.6167C73.2687 14.3476 74.5326 14.2688 75.2635 13.4407C75.9944 12.6126 75.9156 11.3487 75.0875 10.6178L72.4405 13.6167ZM78.9668 13.1658C77.9218 12.8078 76.7845 13.3646 76.4265 14.4096C76.0685 15.4545 76.6254 16.5918 77.6704 16.9498L78.9668 13.1658ZM84.7509 17.5C85.8555 17.5 86.7509 16.6046 86.7509 15.5C86.7509 14.3954 85.8555 13.5 84.7509 13.5V17.5ZM92.2515 13.5C91.1469 13.5 90.2515 14.3954 90.2515 15.5C90.2515 16.6046 91.1469 17.5 92.2515 17.5V13.5ZM2 15.5C3.85779 16.2407 3.85767 16.241 3.85755 16.2413C3.85751 16.2414 3.85739 16.2417 3.85732 16.2419C3.85716 16.2423 3.85701 16.2426 3.85687 16.243C3.85658 16.2437 3.85632 16.2444 3.85607 16.245C3.85558 16.2462 3.85517 16.2472 3.85484 16.248C3.85419 16.2496 3.85388 16.2504 3.8539 16.2503C3.85394 16.2502 3.85533 16.2469 3.8581 16.2403C3.86364 16.2273 3.87467 16.2017 3.89144 16.1646C3.92501 16.0904 3.98139 15.9704 4.06249 15.813C4.22495 15.4977 4.48481 15.0357 4.85678 14.4915L1.55449 12.2343C1.07795 12.9315 0.734993 13.5379 0.506765 13.9809C0.392513 14.2026 0.306579 14.3842 0.246674 14.5167C0.216708 14.583 0.193213 14.637 0.175906 14.6778C0.167252 14.6982 0.16014 14.7153 0.154537 14.7289C0.151735 14.7357 0.149309 14.7417 0.147256 14.7468C0.14623 14.7493 0.145296 14.7516 0.144455 14.7537C0.144034 14.7548 0.143637 14.7557 0.143262 14.7567C0.143075 14.7571 0.142893 14.7576 0.142718 14.758C0.14263 14.7583 0.142502 14.7586 0.142458 14.7587C0.142332 14.759 0.142208 14.7593 2 15.5ZM7.7897 11.3289C8.79878 10.5207 10.0292 9.75661 11.5164 9.16521L10.0383 5.44831C8.15025 6.19911 6.57922 7.17359 5.2891 8.20691L7.7897 11.3289ZM15.7649 8.12244C16.4679 8.0432 17.2122 8 18 8L18 4C17.0657 4 16.1717 4.05125 15.3169 4.1476L15.7649 8.12244ZM18 8C19.2234 8 20.2379 8.16543 21.0954 8.43779L22.3063 4.62548C21.0168 4.21592 19.5897 4 18 4L18 8ZM25.8248 12.2412C26.4746 13.1665 27.0638 14.1809 27.6834 15.2748C28.2882 16.3425 28.9332 17.507 29.6409 18.6007L32.9992 16.4277C32.3722 15.4588 31.7991 14.4248 31.1638 13.3033C30.5434 12.208 29.8707 11.0425 29.0985 9.94262L25.8248 12.2412ZM36.1294 24.2747C37.4285 24.7492 38.8759 25 40.5 25V21C39.2948 21 38.3172 20.8153 37.5017 20.5175L36.1294 24.2747ZM40.5 25C42.0204 25 43.4066 24.7803 44.6758 24.3717L43.4499 20.5641C42.5993 20.838 41.6285 21 40.5 21V25ZM51.3527 19.5126C52.9614 17.5226 54.2903 15.1659 55.4667 13.2931L52.0796 11.1654C50.7559 13.2726 49.6514 15.2544 48.242 16.9979L51.3527 19.5126ZM59.5349 8.63836C60.2396 8.23623 61.0303 8 62 8L62 4C60.3175 4 58.8457 4.42626 57.5525 5.16417L59.5349 8.63836ZM62 8C62.8398 8 63.5969 8.08636 64.2881 8.23638L65.1365 4.32738C64.1599 4.11543 63.1182 4 62 4L62 8ZM68.45 10.1844C69.8545 11.2022 71.0055 12.3501 72.4405 13.6167L75.0875 10.6178C73.8729 9.54576 72.4087 8.11328 70.7971 6.94543L68.45 10.1844ZM77.6704 16.9498C78.6917 17.2997 79.7946 17.5 81 17.5V13.5C80.25 13.5 79.5846 13.3774 78.9668 13.1658L77.6704 16.9498ZM81 17.5C81.0025 17.5 81.0049 17.5 81.0074 17.5C81.0099 17.5 81.0123 17.5 81.0148 17.5C81.0173 17.5 81.0197 17.5 81.0222 17.5C81.0247 17.5 81.0271 17.5 81.0296 17.5C81.032 17.5 81.0345 17.5 81.037 17.5C81.0394 17.5 81.0419 17.5 81.0444 17.5C81.0468 17.5 81.0493 17.5 81.0518 17.5C81.0542 17.5 81.0567 17.5 81.0592 17.5C81.0616 17.5 81.0641 17.5 81.0666 17.5C81.069 17.5 81.0715 17.5 81.074 17.5C81.0764 17.5 81.0789 17.5 81.0814 17.5C81.0838 17.5 81.0863 17.5 81.0887 17.5C81.0912 17.5 81.0937 17.5 81.0961 17.5C81.0986 17.5 81.1011 17.5 81.1035 17.5C81.106 17.5 81.1085 17.5 81.1109 17.5C81.1134 17.5 81.1159 17.5 81.1183 17.5C81.1208 17.5 81.1233 17.5 81.1257 17.5C81.1282 17.5 81.1307 17.5 81.1331 17.5C81.1356 17.5 81.1381 17.5 81.1405 17.5C81.143 17.5 81.1454 17.5 81.1479 17.5C81.1504 17.5 81.1528 17.5 81.1553 17.5C81.1578 17.5 81.1602 17.5 81.1627 17.5C81.1652 17.5 81.1676 17.5 81.1701 17.5C81.1726 17.5 81.175 17.5 81.1775 17.5C81.18 17.5 81.1824 17.5 81.1849 17.5C81.1874 17.5 81.1898 17.5 81.1923 17.5C81.1948 17.5 81.1972 17.5 81.1997 17.5C81.2021 17.5 81.2046 17.5 81.2071 17.5C81.2095 17.5 81.212 17.5 81.2145 17.5C81.2169 17.5 81.2194 17.5 81.2219 17.5C81.2243 17.5 81.2268 17.5 81.2293 17.5C81.2317 17.5 81.2342 17.5 81.2367 17.5C81.2391 17.5 81.2416 17.5 81.2441 17.5C81.2465 17.5 81.249 17.5 81.2514 17.5C81.2539 17.5 81.2564 17.5 81.2588 17.5C81.2613 17.5 81.2638 17.5 81.2662 17.5C81.2687 17.5 81.2712 17.5 81.2736 17.5C81.2761 17.5 81.2786 17.5 81.281 17.5C81.2835 17.5 81.286 17.5 81.2884 17.5C81.2909 17.5 81.2933 17.5 81.2958 17.5C81.2983 17.5 81.3007 17.5 81.3032 17.5C81.3057 17.5 81.3081 17.5 81.3106 17.5C81.3131 17.5 81.3155 17.5 81.318 17.5C81.3205 17.5 81.3229 17.5 81.3254 17.5C81.3279 17.5 81.3303 17.5 81.3328 17.5C81.3353 17.5 81.3377 17.5 81.3402 17.5C81.3426 17.5 81.3451 17.5 81.3476 17.5C81.35 17.5 81.3525 17.5 81.355 17.5C81.3574 17.5 81.3599 17.5 81.3624 17.5C81.3648 17.5 81.3673 17.5 81.3698 17.5C81.3722 17.5 81.3747 17.5 81.3771 17.5C81.3796 17.5 81.3821 17.5 81.3845 17.5C81.387 17.5 81.3895 17.5 81.3919 17.5C81.3944 17.5 81.3969 17.5 81.3993 17.5C81.4018 17.5 81.4043 17.5 81.4067 17.5C81.4092 17.5 81.4117 17.5 81.4141 17.5C81.4166 17.5 81.419 17.5 81.4215 17.5C81.424 17.5 81.4264 17.5 81.4289 17.5C81.4314 17.5 81.4338 17.5 81.4363 17.5C81.4388 17.5 81.4412 17.5 81.4437 17.5C81.4462 17.5 81.4486 17.5 81.4511 17.5C81.4535 17.5 81.456 17.5 81.4585 17.5C81.4609 17.5 81.4634 17.5 81.4659 17.5C81.4683 17.5 81.4708 17.5 81.4733 17.5C81.4757 17.5 81.4782 17.5 81.4807 17.5C81.4831 17.5 81.4856 17.5 81.488 17.5C81.4905 17.5 81.493 17.5 81.4954 17.5C81.4979 17.5 81.5004 17.5 81.5028 17.5C81.5053 17.5 81.5078 17.5 81.5102 17.5C81.5127 17.5 81.5151 17.5 81.5176 17.5C81.5201 17.5 81.5225 17.5 81.525 17.5C81.5275 17.5 81.5299 17.5 81.5324 17.5C81.5349 17.5 81.5373 17.5 81.5398 17.5C81.5423 17.5 81.5447 17.5 81.5472 17.5C81.5496 17.5 81.5521 17.5 81.5546 17.5C81.557 17.5 81.5595 17.5 81.562 17.5C81.5644 17.5 81.5669 17.5 81.5694 17.5C81.5718 17.5 81.5743 17.5 81.5767 17.5C81.5792 17.5 81.5817 17.5 81.5841 17.5C81.5866 17.5 81.5891 17.5 81.5915 17.5C81.594 17.5 81.5965 17.5 81.5989 17.5C81.6014 17.5 81.6038 17.5 81.6063 17.5C81.6088 17.5 81.6112 17.5 81.6137 17.5C81.6162 17.5 81.6186 17.5 81.6211 17.5C81.6236 17.5 81.626 17.5 81.6285 17.5C81.6309 17.5 81.6334 17.5 81.6359 17.5C81.6383 17.5 81.6408 17.5 81.6433 17.5C81.6457 17.5 81.6482 17.5 81.6506 17.5C81.6531 17.5 81.6556 17.5 81.658 17.5C81.6605 17.5 81.663 17.5 81.6654 17.5C81.6679 17.5 81.6704 17.5 81.6728 17.5C81.6753 17.5 81.6777 17.5 81.6802 17.5C81.6827 17.5 81.6851 17.5 81.6876 17.5C81.6901 17.5 81.6925 17.5 81.695 17.5C81.6974 17.5 81.6999 17.5 81.7024 17.5C81.7048 17.5 81.7073 17.5 81.7098 17.5C81.7122 17.5 81.7147 17.5 81.7171 17.5C81.7196 17.5 81.7221 17.5 81.7245 17.5C81.727 17.5 81.7295 17.5 81.7319 17.5C81.7344 17.5 81.7368 17.5 81.7393 17.5C81.7418 17.5 81.7442 17.5 81.7467 17.5C81.7492 17.5 81.7516 17.5 81.7541 17.5C81.7565 17.5 81.759 17.5 81.7615 17.5C81.7639 17.5 81.7664 17.5 81.7689 17.5C81.7713 17.5 81.7738 17.5 81.7762 17.5C81.7787 17.5 81.7812 17.5 81.7836 17.5C81.7861 17.5 81.7886 17.5 81.791 17.5C81.7935 17.5 81.7959 17.5 81.7984 17.5C81.8009 17.5 81.8033 17.5 81.8058 17.5C81.8083 17.5 81.8107 17.5 81.8132 17.5C81.8156 17.5 81.8181 17.5 81.8206 17.5C81.823 17.5 81.8255 17.5 81.828 17.5C81.8304 17.5 81.8329 17.5 81.8353 17.5C81.8378 17.5 81.8403 17.5 81.8427 17.5C81.8452 17.5 81.8476 17.5 81.8501 17.5C81.8526 17.5 81.855 17.5 81.8575 17.5C81.86 17.5 81.8624 17.5 81.8649 17.5C81.8673 17.5 81.8698 17.5 81.8723 17.5C81.8747 17.5 81.8772 17.5 81.8796 17.5C81.8821 17.5 81.8846 17.5 81.887 17.5C81.8895 17.5 81.892 17.5 81.8944 17.5C81.8969 17.5 81.8993 17.5 81.9018 17.5C81.9043 17.5 81.9067 17.5 81.9092 17.5C81.9116 17.5 81.9141 17.5 81.9166 17.5C81.919 17.5 81.9215 17.5 81.924 17.5C81.9264 17.5 81.9289 17.5 81.9313 17.5C81.9338 17.5 81.9363 17.5 81.9387 17.5C81.9412 17.5 81.9436 17.5 81.9461 17.5C81.9486 17.5 81.951 17.5 81.9535 17.5C81.9559 17.5 81.9584 17.5 81.9609 17.5C81.9633 17.5 81.9658 17.5 81.9682 17.5C81.9707 17.5 81.9732 17.5 81.9756 17.5C81.9781 17.5 81.9806 17.5 81.983 17.5C81.9855 17.5 81.9879 17.5 81.9904 17.5C81.9929 17.5 81.9953 17.5 81.9978 17.5C82.0002 17.5 82.0027 17.5 82.0052 17.5C82.0076 17.5 82.0101 17.5 82.0125 17.5C82.015 17.5 82.0175 17.5 82.0199 17.5C82.0224 17.5 82.0248 17.5 82.0273 17.5C82.0298 17.5 82.0322 17.5 82.0347 17.5C82.0371 17.5 82.0396 17.5 82.0421 17.5C82.0445 17.5 82.047 17.5 82.0494 17.5C82.0519 17.5 82.0544 17.5 82.0568 17.5C82.0593 17.5 82.0617 17.5 82.0642 17.5C82.0667 17.5 82.0691 17.5 82.0716 17.5C82.074 17.5 82.0765 17.5 82.079 17.5C82.0814 17.5 82.0839 17.5 82.0863 17.5C82.0888 17.5 82.0913 17.5 82.0937 17.5C82.0962 17.5 82.0986 17.5 82.1011 17.5C82.1035 17.5 82.106 17.5 82.1085 17.5C82.1109 17.5 82.1134 17.5 82.1158 17.5C82.1183 17.5 82.1208 17.5 82.1232 17.5C82.1257 17.5 82.1281 17.5 82.1306 17.5C82.1331 17.5 82.1355 17.5 82.138 17.5C82.1404 17.5 82.1429 17.5 82.1454 17.5C82.1478 17.5 82.1503 17.5 82.1527 17.5C82.1552 17.5 82.1576 17.5 82.1601 17.5C82.1626 17.5 82.165 17.5 82.1675 17.5C82.1699 17.5 82.1724 17.5 82.1749 17.5C82.1773 17.5 82.1798 17.5 82.1822 17.5C82.1847 17.5 82.1872 17.5 82.1896 17.5C82.1921 17.5 82.1945 17.5 82.197 17.5C82.1994 17.5 82.2019 17.5 82.2044 17.5C82.2068 17.5 82.2093 17.5 82.2117 17.5C82.2142 17.5 82.2166 17.5 82.2191 17.5C82.2216 17.5 82.224 17.5 82.2265 17.5C82.2289 17.5 82.2314 17.5 82.2339 17.5C82.2363 17.5 82.2388 17.5 82.2412 17.5C82.2437 17.5 82.2461 17.5 82.2486 17.5C82.2511 17.5 82.2535 17.5 82.256 17.5C82.2584 17.5 82.2609 17.5 82.2633 17.5C82.2658 17.5 82.2683 17.5 82.2707 17.5C82.2732 17.5 82.2756 17.5 82.2781 17.5C82.2805 17.5 82.283 17.5 82.2855 17.5C82.2879 17.5 82.2904 17.5 82.2928 17.5C82.2953 17.5 82.2977 17.5 82.3002 17.5C82.3027 17.5 82.3051 17.5 82.3076 17.5C82.31 17.5 82.3125 17.5 82.3149 17.5C82.3174 17.5 82.3199 17.5 82.3223 17.5C82.3248 17.5 82.3272 17.5 82.3297 17.5C82.3321 17.5 82.3346 17.5 82.3371 17.5C82.3395 17.5 82.342 17.5 82.3444 17.5C82.3469 17.5 82.3493 17.5 82.3518 17.5C82.3543 17.5 82.3567 17.5 82.3592 17.5C82.3616 17.5 82.3641 17.5 82.3665 17.5C82.369 17.5 82.3714 17.5 82.3739 17.5C82.3764 17.5 82.3788 17.5 82.3813 17.5C82.3837 17.5 82.3862 17.5 82.3886 17.5C82.3911 17.5 82.3935 17.5 82.396 17.5C82.3985 17.5 82.4009 17.5 82.4034 17.5C82.4058 17.5 82.4083 17.5 82.4107 17.5C82.4132 17.5 82.4156 17.5 82.4181 17.5C82.4206 17.5 82.423 17.5 82.4255 17.5C82.4279 17.5 82.4304 17.5 82.4328 17.5C82.4353 17.5 82.4377 17.5 82.4402 17.5C82.4427 17.5 82.4451 17.5 82.4476 17.5C82.45 17.5 82.4525 17.5 82.4549 17.5C82.4574 17.5 82.4598 17.5 82.4623 17.5C82.4648 17.5 82.4672 17.5 82.4697 17.5C82.4721 17.5 82.4746 17.5 82.477 17.5C82.4795 17.5 82.4819 17.5 82.4844 17.5C82.4868 17.5 82.4893 17.5 82.4918 17.5C82.4942 17.5 82.4967 17.5 82.4991 17.5C82.5016 17.5 82.504 17.5 82.5065 17.5C82.5089 17.5 82.5114 17.5 82.5138 17.5C82.5163 17.5 82.5187 17.5 82.5212 17.5C82.5237 17.5 82.5261 17.5 82.5286 17.5C82.531 17.5 82.5335 17.5 82.5359 17.5C82.5384 17.5 82.5408 17.5 82.5433 17.5C82.5457 17.5 82.5482 17.5 82.5506 17.5C82.5531 17.5 82.5556 17.5 82.558 17.5C82.5605 17.5 82.5629 17.5 82.5654 17.5C82.5678 17.5 82.5703 17.5 82.5727 17.5C82.5752 17.5 82.5776 17.5 82.5801 17.5C82.5825 17.5 82.585 17.5 82.5874 17.5C82.5899 17.5 82.5924 17.5 82.5948 17.5C82.5973 17.5 82.5997 17.5 82.6022 17.5C82.6046 17.5 82.6071 17.5 82.6095 17.5C82.612 17.5 82.6144 17.5 82.6169 17.5C82.6193 17.5 82.6218 17.5 82.6242 17.5C82.6267 17.5 82.6291 17.5 82.6316 17.5C82.634 17.5 82.6365 17.5 82.6389 17.5C82.6414 17.5 82.6439 17.5 82.6463 17.5C82.6488 17.5 82.6512 17.5 82.6537 17.5C82.6561 17.5 82.6586 17.5 82.661 17.5C82.6635 17.5 82.6659 17.5 82.6684 17.5C82.6708 17.5 82.6733 17.5 82.6757 17.5C82.6782 17.5 82.6806 17.5 82.6831 17.5C82.6855 17.5 82.688 17.5 82.6904 17.5C82.6929 17.5 82.6953 17.5 82.6978 17.5C82.7002 17.5 82.7027 17.5 82.7051 17.5C82.7076 17.5 82.71 17.5 82.7125 17.5C82.7149 17.5 82.7174 17.5 82.7198 17.5C82.7223 17.5 82.7247 17.5 82.7272 17.5C82.7296 17.5 82.7321 17.5 82.7346 17.5C82.737 17.5 82.7395 17.5 82.7419 17.5C82.7444 17.5 82.7468 17.5 82.7493 17.5C82.7517 17.5 82.7542 17.5 82.7566 17.5C82.7591 17.5 82.7615 17.5 82.764 17.5C82.7664 17.5 82.7689 17.5 82.7713 17.5C82.7738 17.5 82.7762 17.5 82.7787 17.5C82.7811 17.5 82.7836 17.5 82.786 17.5C82.7885 17.5 82.7909 17.5 82.7934 17.5C82.7958 17.5 82.7983 17.5 82.8007 17.5C82.8031 17.5 82.8056 17.5 82.808 17.5C82.8105 17.5 82.8129 17.5 82.8154 17.5C82.8178 17.5 82.8203 17.5 82.8227 17.5C82.8252 17.5 82.8276 17.5 82.8301 17.5C82.8325 17.5 82.835 17.5 82.8374 17.5C82.8399 17.5 82.8423 17.5 82.8448 17.5C82.8472 17.5 82.8497 17.5 82.8521 17.5C82.8546 17.5 82.857 17.5 82.8595 17.5C82.8619 17.5 82.8644 17.5 82.8668 17.5C82.8693 17.5 82.8717 17.5 82.8742 17.5C82.8766 17.5 82.8791 17.5 82.8815 17.5C82.884 17.5 82.8864 17.5 82.8889 17.5C82.8913 17.5 82.8937 17.5 82.8962 17.5C82.8986 17.5 82.9011 17.5 82.9035 17.5C82.906 17.5 82.9084 17.5 82.9109 17.5C82.9133 17.5 82.9158 17.5 82.9182 17.5C82.9207 17.5 82.9231 17.5 82.9256 17.5C82.928 17.5 82.9305 17.5 82.9329 17.5C82.9354 17.5 82.9378 17.5 82.9402 17.5C82.9427 17.5 82.9451 17.5 82.9476 17.5C82.95 17.5 82.9525 17.5 82.9549 17.5C82.9574 17.5 82.9598 17.5 82.9623 17.5C82.9647 17.5 82.9672 17.5 82.9696 17.5C82.972 17.5 82.9745 17.5 82.9769 17.5C82.9794 17.5 82.9818 17.5 82.9843 17.5C82.9867 17.5 82.9892 17.5 82.9916 17.5C82.9941 17.5 82.9965 17.5 82.999 17.5C83.0014 17.5 83.0038 17.5 83.0063 17.5C83.0087 17.5 83.0112 17.5 83.0136 17.5C83.0161 17.5 83.0185 17.5 83.021 17.5C83.0234 17.5 83.0259 17.5 83.0283 17.5C83.0307 17.5 83.0332 17.5 83.0356 17.5C83.0381 17.5 83.0405 17.5 83.043 17.5C83.0454 17.5 83.0479 17.5 83.0503 17.5C83.0527 17.5 83.0552 17.5 83.0576 17.5C83.0601 17.5 83.0625 17.5 83.065 17.5C83.0674 17.5 83.0699 17.5 83.0723 17.5C83.0747 17.5 83.0772 17.5 83.0796 17.5C83.0821 17.5 83.0845 17.5 83.087 17.5C83.0894 17.5 83.0919 17.5 83.0943 17.5C83.0967 17.5 83.0992 17.5 83.1016 17.5C83.1041 17.5 83.1065 17.5 83.109 17.5C83.1114 17.5 83.1138 17.5 83.1163 17.5C83.1187 17.5 83.1212 17.5 83.1236 17.5C83.1261 17.5 83.1285 17.5 83.131 17.5C83.1334 17.5 83.1358 17.5 83.1383 17.5C83.1407 17.5 83.1432 17.5 83.1456 17.5C83.1481 17.5 83.1505 17.5 83.1529 17.5C83.1554 17.5 83.1578 17.5 83.1603 17.5C83.1627 17.5 83.1651 17.5 83.1676 17.5C83.17 17.5 83.1725 17.5 83.1749 17.5C83.1774 17.5 83.1798 17.5 83.1822 17.5C83.1847 17.5 83.1871 17.5 83.1896 17.5C83.192 17.5 83.1945 17.5 83.1969 17.5C83.1993 17.5 83.2018 17.5 83.2042 17.5C83.2067 17.5 83.2091 17.5 83.2115 17.5C83.214 17.5 83.2164 17.5 83.2189 17.5C83.2213 17.5 83.2237 17.5 83.2262 17.5C83.2286 17.5 83.2311 17.5 83.2335 17.5C83.236 17.5 83.2384 17.5 83.2408 17.5C83.2433 17.5 83.2457 17.5 83.2482 17.5C83.2506 17.5 83.253 17.5 83.2555 17.5C83.2579 17.5 83.2604 17.5 83.2628 17.5C83.2652 17.5 83.2677 17.5 83.2701 17.5C83.2726 17.5 83.275 17.5 83.2774 17.5C83.2799 17.5 83.2823 17.5 83.2848 17.5C83.2872 17.5 83.2896 17.5 83.2921 17.5C83.2945 17.5 83.297 17.5 83.2994 17.5C83.3018 17.5 83.3043 17.5 83.3067 17.5C83.3092 17.5 83.3116 17.5 83.314 17.5C83.3165 17.5 83.3189 17.5 83.3213 17.5C83.3238 17.5 83.3262 17.5 83.3287 17.5C83.3311 17.5 83.3335 17.5 83.336 17.5C83.3384 17.5 83.3409 17.5 83.3433 17.5C83.3457 17.5 83.3482 17.5 83.3506 17.5C83.353 17.5 83.3555 17.5 83.3579 17.5C83.3604 17.5 83.3628 17.5 83.3652 17.5C83.3677 17.5 83.3701 17.5 83.3725 17.5C83.375 17.5 83.3774 17.5 83.3799 17.5C83.3823 17.5 83.3847 17.5 83.3872 17.5C83.3896 17.5 83.392 17.5 83.3945 17.5C83.3969 17.5 83.3994 17.5 83.4018 17.5C83.4042 17.5 83.4067 17.5 83.4091 17.5C83.4115 17.5 83.414 17.5 83.4164 17.5C83.4189 17.5 83.4213 17.5 83.4237 17.5C83.4262 17.5 83.4286 17.5 83.431 17.5C83.4335 17.5 83.4359 17.5 83.4383 17.5C83.4408 17.5 83.4432 17.5 83.4457 17.5C83.4481 17.5 83.4505 17.5 83.453 17.5C83.4554 17.5 83.4578 17.5 83.4603 17.5C83.4627 17.5 83.4651 17.5 83.4676 17.5C83.47 17.5 83.4724 17.5 83.4749 17.5C83.4773 17.5 83.4797 17.5 83.4822 17.5C83.4846 17.5 83.4871 17.5 83.4895 17.5C83.4919 17.5 83.4944 17.5 83.4968 17.5C83.4992 17.5 83.5017 17.5 83.5041 17.5C83.5065 17.5 83.509 17.5 83.5114 17.5C83.5138 17.5 83.5163 17.5 83.5187 17.5C83.5211 17.5 83.5236 17.5 83.526 17.5C83.5284 17.5 83.5309 17.5 83.5333 17.5C83.5357 17.5 83.5382 17.5 83.5406 17.5C83.543 17.5 83.5455 17.5 83.5479 17.5C83.5503 17.5 83.5528 17.5 83.5552 17.5C83.5576 17.5 83.5601 17.5 83.5625 17.5C83.5649 17.5 83.5674 17.5 83.5698 17.5C83.5722 17.5 83.5747 17.5 83.5771 17.5C83.5795 17.5 83.582 17.5 83.5844 17.5C83.5868 17.5 83.5893 17.5 83.5917 17.5C83.5941 17.5 83.5966 17.5 83.599 17.5C83.6014 17.5 83.6039 17.5 83.6063 17.5C83.6087 17.5 83.6112 17.5 83.6136 17.5C83.616 17.5 83.6184 17.5 83.6209 17.5C83.6233 17.5 83.6257 17.5 83.6282 17.5C83.6306 17.5 83.633 17.5 83.6355 17.5C83.6379 17.5 83.6403 17.5 83.6428 17.5C83.6452 17.5 83.6476 17.5 83.6501 17.5C83.6525 17.5 83.6549 17.5 83.6573 17.5C83.6598 17.5 83.6622 17.5 83.6646 17.5C83.6671 17.5 83.6695 17.5 83.6719 17.5C83.6744 17.5 83.6768 17.5 83.6792 17.5C83.6816 17.5 83.6841 17.5 83.6865 17.5C83.6889 17.5 83.6914 17.5 83.6938 17.5C83.6962 17.5 83.6987 17.5 83.7011 17.5C83.7035 17.5 83.7059 17.5 83.7084 17.5C83.7108 17.5 83.7132 17.5 83.7157 17.5C83.7181 17.5 83.7205 17.5 83.7229 17.5C83.7254 17.5 83.7278 17.5 83.7302 17.5C83.7327 17.5 83.7351 17.5 83.7375 17.5C83.7399 17.5 83.7424 17.5 83.7448 17.5C83.7472 17.5 83.7497 17.5 83.7521 17.5C83.7545 17.5 83.7569 17.5 83.7594 17.5C83.7618 17.5 83.7642 17.5 83.7667 17.5C83.7691 17.5 83.7715 17.5 83.7739 17.5C83.7764 17.5 83.7788 17.5 83.7812 17.5C83.7836 17.5 83.7861 17.5 83.7885 17.5C83.7909 17.5 83.7934 17.5 83.7958 17.5C83.7982 17.5 83.8006 17.5 83.8031 17.5C83.8055 17.5 83.8079 17.5 83.8103 17.5C83.8128 17.5 83.8152 17.5 83.8176 17.5C83.82 17.5 83.8225 17.5 83.8249 17.5C83.8273 17.5 83.8297 17.5 83.8322 17.5C83.8346 17.5 83.837 17.5 83.8395 17.5C83.8419 17.5 83.8443 17.5 83.8467 17.5C83.8492 17.5 83.8516 17.5 83.854 17.5C83.8564 17.5 83.8589 17.5 83.8613 17.5C83.8637 17.5 83.8661 17.5 83.8686 17.5C83.871 17.5 83.8734 17.5 83.8758 17.5C83.8783 17.5 83.8807 17.5 83.8831 17.5C83.8855 17.5 83.8879 17.5 83.8904 17.5C83.8928 17.5 83.8952 17.5 83.8976 17.5C83.9001 17.5 83.9025 17.5 83.9049 17.5C83.9073 17.5 83.9098 17.5 83.9122 17.5C83.9146 17.5 83.917 17.5 83.9195 17.5C83.9219 17.5 83.9243 17.5 83.9267 17.5C83.9292 17.5 83.9316 17.5 83.934 17.5C83.9364 17.5 83.9388 17.5 83.9413 17.5C83.9437 17.5 83.9461 17.5 83.9485 17.5C83.951 17.5 83.9534 17.5 83.9558 17.5C83.9582 17.5 83.9606 17.5 83.9631 17.5C83.9655 17.5 83.9679 17.5 83.9703 17.5C83.9728 17.5 83.9752 17.5 83.9776 17.5C83.98 17.5 83.9824 17.5 83.9849 17.5C83.9873 17.5 83.9897 17.5 83.9921 17.5C83.9945 17.5 83.997 17.5 83.9994 17.5C84.0018 17.5 84.0042 17.5 84.0066 17.5C84.0091 17.5 84.0115 17.5 84.0139 17.5C84.0163 17.5 84.0188 17.5 84.0212 17.5C84.0236 17.5 84.026 17.5 84.0284 17.5C84.0309 17.5 84.0333 17.5 84.0357 17.5C84.0381 17.5 84.0405 17.5 84.043 17.5C84.0454 17.5 84.0478 17.5 84.0502 17.5C84.0526 17.5 84.055 17.5 84.0575 17.5C84.0599 17.5 84.0623 17.5 84.0647 17.5C84.0671 17.5 84.0696 17.5 84.072 17.5C84.0744 17.5 84.0768 17.5 84.0792 17.5C84.0817 17.5 84.0841 17.5 84.0865 17.5C84.0889 17.5 84.0913 17.5 84.0937 17.5C84.0962 17.5 84.0986 17.5 84.101 17.5C84.1034 17.5 84.1058 17.5 84.1083 17.5C84.1107 17.5 84.1131 17.5 84.1155 17.5C84.1179 17.5 84.1203 17.5 84.1228 17.5C84.1252 17.5 84.1276 17.5 84.13 17.5C84.1324 17.5 84.1348 17.5 84.1373 17.5C84.1397 17.5 84.1421 17.5 84.1445 17.5C84.1469 17.5 84.1493 17.5 84.1518 17.5C84.1542 17.5 84.1566 17.5 84.159 17.5C84.1614 17.5 84.1638 17.5 84.1663 17.5C84.1687 17.5 84.1711 17.5 84.1735 17.5C84.1759 17.5 84.1783 17.5 84.1807 17.5C84.1832 17.5 84.1856 17.5 84.188 17.5C84.1904 17.5 84.1928 17.5 84.1952 17.5C84.1977 17.5 84.2001 17.5 84.2025 17.5C84.2049 17.5 84.2073 17.5 84.2097 17.5C84.2121 17.5 84.2146 17.5 84.217 17.5C84.2194 17.5 84.2218 17.5 84.2242 17.5C84.2266 17.5 84.229 17.5 84.2315 17.5C84.2339 17.5 84.2363 17.5 84.2387 17.5C84.2411 17.5 84.2435 17.5 84.2459 17.5C84.2483 17.5 84.2508 17.5 84.2532 17.5C84.2556 17.5 84.258 17.5 84.2604 17.5C84.2628 17.5 84.2652 17.5 84.2676 17.5C84.2701 17.5 84.2725 17.5 84.2749 17.5C84.2773 17.5 84.2797 17.5 84.2821 17.5C84.2845 17.5 84.2869 17.5 84.2894 17.5C84.2918 17.5 84.2942 17.5 84.2966 17.5C84.299 17.5 84.3014 17.5 84.3038 17.5C84.3062 17.5 84.3087 17.5 84.3111 17.5C84.3135 17.5 84.3159 17.5 84.3183 17.5C84.3207 17.5 84.3231 17.5 84.3255 17.5C84.3279 17.5 84.3303 17.5 84.3328 17.5C84.3352 17.5 84.3376 17.5 84.34 17.5C84.3424 17.5 84.3448 17.5 84.3472 17.5C84.3496 17.5 84.352 17.5 84.3544 17.5C84.3569 17.5 84.3593 17.5 84.3617 17.5C84.3641 17.5 84.3665 17.5 84.3689 17.5C84.3713 17.5 84.3737 17.5 84.3761 17.5C84.3785 17.5 84.3809 17.5 84.3834 17.5C84.3858 17.5 84.3882 17.5 84.3906 17.5C84.393 17.5 84.3954 17.5 84.3978 17.5C84.4002 17.5 84.4026 17.5 84.405 17.5C84.4074 17.5 84.4098 17.5 84.4123 17.5C84.4147 17.5 84.4171 17.5 84.4195 17.5C84.4219 17.5 84.4243 17.5 84.4267 17.5C84.4291 17.5 84.4315 17.5 84.4339 17.5C84.4363 17.5 84.4387 17.5 84.4411 17.5C84.4435 17.5 84.446 17.5 84.4484 17.5C84.4508 17.5 84.4532 17.5 84.4556 17.5C84.458 17.5 84.4604 17.5 84.4628 17.5C84.4652 17.5 84.4676 17.5 84.47 17.5C84.4724 17.5 84.4748 17.5 84.4772 17.5C84.4796 17.5 84.482 17.5 84.4844 17.5C84.4869 17.5 84.4893 17.5 84.4917 17.5C84.4941 17.5 84.4965 17.5 84.4989 17.5C84.5013 17.5 84.5037 17.5 84.5061 17.5C84.5085 17.5 84.5109 17.5 84.5133 17.5C84.5157 17.5 84.5181 17.5 84.5205 17.5C84.5229 17.5 84.5253 17.5 84.5277 17.5C84.5301 17.5 84.5325 17.5 84.5349 17.5C84.5373 17.5 84.5397 17.5 84.5421 17.5C84.5446 17.5 84.547 17.5 84.5494 17.5C84.5518 17.5 84.5542 17.5 84.5566 17.5C84.559 17.5 84.5614 17.5 84.5638 17.5C84.5662 17.5 84.5686 17.5 84.571 17.5C84.5734 17.5 84.5758 17.5 84.5782 17.5C84.5806 17.5 84.583 17.5 84.5854 17.5C84.5878 17.5 84.5902 17.5 84.5926 17.5C84.595 17.5 84.5974 17.5 84.5998 17.5C84.6022 17.5 84.6046 17.5 84.607 17.5C84.6094 17.5 84.6118 17.5 84.6142 17.5C84.6166 17.5 84.619 17.5 84.6214 17.5C84.6238 17.5 84.6262 17.5 84.6286 17.5C84.631 17.5 84.6334 17.5 84.6358 17.5C84.6382 17.5 84.6406 17.5 84.643 17.5C84.6454 17.5 84.6478 17.5 84.6502 17.5C84.6526 17.5 84.655 17.5 84.6574 17.5C84.6598 17.5 84.6622 17.5 84.6646 17.5C84.667 17.5 84.6694 17.5 84.6718 17.5C84.6742 17.5 84.6766 17.5 84.679 17.5C84.6814 17.5 84.6838 17.5 84.6862 17.5C84.6886 17.5 84.691 17.5 84.6934 17.5C84.6958 17.5 84.6982 17.5 84.7006 17.5C84.703 17.5 84.7054 17.5 84.7078 17.5C84.7102 17.5 84.7125 17.5 84.7149 17.5C84.7173 17.5 84.7197 17.5 84.7221 17.5C84.7245 17.5 84.7269 17.5 84.7293 17.5C84.7317 17.5 84.7341 17.5 84.7365 17.5C84.7389 17.5 84.7413 17.5 84.7437 17.5C84.7461 17.5 84.7485 17.5 84.7509 17.5V13.5C84.7485 13.5 84.7461 13.5 84.7437 13.5C84.7413 13.5 84.7389 13.5 84.7365 13.5C84.7341 13.5 84.7317 13.5 84.7293 13.5C84.7269 13.5 84.7245 13.5 84.7221 13.5C84.7197 13.5 84.7173 13.5 84.7149 13.5C84.7125 13.5 84.7102 13.5 84.7078 13.5C84.7054 13.5 84.703 13.5 84.7006 13.5C84.6982 13.5 84.6958 13.5 84.6934 13.5C84.691 13.5 84.6886 13.5 84.6862 13.5C84.6838 13.5 84.6814 13.5 84.679 13.5C84.6766 13.5 84.6742 13.5 84.6718 13.5C84.6694 13.5 84.667 13.5 84.6646 13.5C84.6622 13.5 84.6598 13.5 84.6574 13.5C84.655 13.5 84.6526 13.5 84.6502 13.5C84.6478 13.5 84.6454 13.5 84.643 13.5C84.6406 13.5 84.6382 13.5 84.6358 13.5C84.6334 13.5 84.631 13.5 84.6286 13.5C84.6262 13.5 84.6238 13.5 84.6214 13.5C84.619 13.5 84.6166 13.5 84.6142 13.5C84.6118 13.5 84.6094 13.5 84.607 13.5C84.6046 13.5 84.6022 13.5 84.5998 13.5C84.5974 13.5 84.595 13.5 84.5926 13.5C84.5902 13.5 84.5878 13.5 84.5854 13.5C84.583 13.5 84.5806 13.5 84.5782 13.5C84.5758 13.5 84.5734 13.5 84.571 13.5C84.5686 13.5 84.5662 13.5 84.5638 13.5C84.5614 13.5 84.559 13.5 84.5566 13.5C84.5542 13.5 84.5518 13.5 84.5494 13.5C84.547 13.5 84.5446 13.5 84.5421 13.5C84.5397 13.5 84.5373 13.5 84.5349 13.5C84.5325 13.5 84.5301 13.5 84.5277 13.5C84.5253 13.5 84.5229 13.5 84.5205 13.5C84.5181 13.5 84.5157 13.5 84.5133 13.5C84.5109 13.5 84.5085 13.5 84.5061 13.5C84.5037 13.5 84.5013 13.5 84.4989 13.5C84.4965 13.5 84.4941 13.5 84.4917 13.5C84.4893 13.5 84.4869 13.5 84.4844 13.5C84.482 13.5 84.4796 13.5 84.4772 13.5C84.4748 13.5 84.4724 13.5 84.47 13.5C84.4676 13.5 84.4652 13.5 84.4628 13.5C84.4604 13.5 84.458 13.5 84.4556 13.5C84.4532 13.5 84.4508 13.5 84.4484 13.5C84.446 13.5 84.4435 13.5 84.4411 13.5C84.4387 13.5 84.4363 13.5 84.4339 13.5C84.4315 13.5 84.4291 13.5 84.4267 13.5C84.4243 13.5 84.4219 13.5 84.4195 13.5C84.4171 13.5 84.4147 13.5 84.4123 13.5C84.4098 13.5 84.4074 13.5 84.405 13.5C84.4026 13.5 84.4002 13.5 84.3978 13.5C84.3954 13.5 84.393 13.5 84.3906 13.5C84.3882 13.5 84.3858 13.5 84.3834 13.5C84.3809 13.5 84.3785 13.5 84.3761 13.5C84.3737 13.5 84.3713 13.5 84.3689 13.5C84.3665 13.5 84.3641 13.5 84.3617 13.5C84.3593 13.5 84.3569 13.5 84.3544 13.5C84.352 13.5 84.3496 13.5 84.3472 13.5C84.3448 13.5 84.3424 13.5 84.34 13.5C84.3376 13.5 84.3352 13.5 84.3328 13.5C84.3303 13.5 84.3279 13.5 84.3255 13.5C84.3231 13.5 84.3207 13.5 84.3183 13.5C84.3159 13.5 84.3135 13.5 84.3111 13.5C84.3087 13.5 84.3062 13.5 84.3038 13.5C84.3014 13.5 84.299 13.5 84.2966 13.5C84.2942 13.5 84.2918 13.5 84.2894 13.5C84.2869 13.5 84.2845 13.5 84.2821 13.5C84.2797 13.5 84.2773 13.5 84.2749 13.5C84.2725 13.5 84.2701 13.5 84.2676 13.5C84.2652 13.5 84.2628 13.5 84.2604 13.5C84.258 13.5 84.2556 13.5 84.2532 13.5C84.2508 13.5 84.2483 13.5 84.2459 13.5C84.2435 13.5 84.2411 13.5 84.2387 13.5C84.2363 13.5 84.2339 13.5 84.2315 13.5C84.229 13.5 84.2266 13.5 84.2242 13.5C84.2218 13.5 84.2194 13.5 84.217 13.5C84.2146 13.5 84.2121 13.5 84.2097 13.5C84.2073 13.5 84.2049 13.5 84.2025 13.5C84.2001 13.5 84.1977 13.5 84.1952 13.5C84.1928 13.5 84.1904 13.5 84.188 13.5C84.1856 13.5 84.1832 13.5 84.1807 13.5C84.1783 13.5 84.1759 13.5 84.1735 13.5C84.1711 13.5 84.1687 13.5 84.1663 13.5C84.1638 13.5 84.1614 13.5 84.159 13.5C84.1566 13.5 84.1542 13.5 84.1518 13.5C84.1493 13.5 84.1469 13.5 84.1445 13.5C84.1421 13.5 84.1397 13.5 84.1373 13.5C84.1348 13.5 84.1324 13.5 84.13 13.5C84.1276 13.5 84.1252 13.5 84.1228 13.5C84.1203 13.5 84.1179 13.5 84.1155 13.5C84.1131 13.5 84.1107 13.5 84.1083 13.5C84.1058 13.5 84.1034 13.5 84.101 13.5C84.0986 13.5 84.0962 13.5 84.0937 13.5C84.0913 13.5 84.0889 13.5 84.0865 13.5C84.0841 13.5 84.0817 13.5 84.0792 13.5C84.0768 13.5 84.0744 13.5 84.072 13.5C84.0696 13.5 84.0671 13.5 84.0647 13.5C84.0623 13.5 84.0599 13.5 84.0575 13.5C84.055 13.5 84.0526 13.5 84.0502 13.5C84.0478 13.5 84.0454 13.5 84.043 13.5C84.0405 13.5 84.0381 13.5 84.0357 13.5C84.0333 13.5 84.0309 13.5 84.0284 13.5C84.026 13.5 84.0236 13.5 84.0212 13.5C84.0188 13.5 84.0163 13.5 84.0139 13.5C84.0115 13.5 84.0091 13.5 84.0066 13.5C84.0042 13.5 84.0018 13.5 83.9994 13.5C83.997 13.5 83.9945 13.5 83.9921 13.5C83.9897 13.5 83.9873 13.5 83.9849 13.5C83.9824 13.5 83.98 13.5 83.9776 13.5C83.9752 13.5 83.9728 13.5 83.9703 13.5C83.9679 13.5 83.9655 13.5 83.9631 13.5C83.9606 13.5 83.9582 13.5 83.9558 13.5C83.9534 13.5 83.951 13.5 83.9485 13.5C83.9461 13.5 83.9437 13.5 83.9413 13.5C83.9388 13.5 83.9364 13.5 83.934 13.5C83.9316 13.5 83.9292 13.5 83.9267 13.5C83.9243 13.5 83.9219 13.5 83.9195 13.5C83.917 13.5 83.9146 13.5 83.9122 13.5C83.9098 13.5 83.9073 13.5 83.9049 13.5C83.9025 13.5 83.9001 13.5 83.8976 13.5C83.8952 13.5 83.8928 13.5 83.8904 13.5C83.8879 13.5 83.8855 13.5 83.8831 13.5C83.8807 13.5 83.8783 13.5 83.8758 13.5C83.8734 13.5 83.871 13.5 83.8686 13.5C83.8661 13.5 83.8637 13.5 83.8613 13.5C83.8589 13.5 83.8564 13.5 83.854 13.5C83.8516 13.5 83.8492 13.5 83.8467 13.5C83.8443 13.5 83.8419 13.5 83.8395 13.5C83.837 13.5 83.8346 13.5 83.8322 13.5C83.8297 13.5 83.8273 13.5 83.8249 13.5C83.8225 13.5 83.82 13.5 83.8176 13.5C83.8152 13.5 83.8128 13.5 83.8103 13.5C83.8079 13.5 83.8055 13.5 83.8031 13.5C83.8006 13.5 83.7982 13.5 83.7958 13.5C83.7934 13.5 83.7909 13.5 83.7885 13.5C83.7861 13.5 83.7836 13.5 83.7812 13.5C83.7788 13.5 83.7764 13.5 83.7739 13.5C83.7715 13.5 83.7691 13.5 83.7667 13.5C83.7642 13.5 83.7618 13.5 83.7594 13.5C83.7569 13.5 83.7545 13.5 83.7521 13.5C83.7497 13.5 83.7472 13.5 83.7448 13.5C83.7424 13.5 83.7399 13.5 83.7375 13.5C83.7351 13.5 83.7327 13.5 83.7302 13.5C83.7278 13.5 83.7254 13.5 83.7229 13.5C83.7205 13.5 83.7181 13.5 83.7157 13.5C83.7132 13.5 83.7108 13.5 83.7084 13.5C83.7059 13.5 83.7035 13.5 83.7011 13.5C83.6987 13.5 83.6962 13.5 83.6938 13.5C83.6914 13.5 83.6889 13.5 83.6865 13.5C83.6841 13.5 83.6816 13.5 83.6792 13.5C83.6768 13.5 83.6744 13.5 83.6719 13.5C83.6695 13.5 83.6671 13.5 83.6646 13.5C83.6622 13.5 83.6598 13.5 83.6573 13.5C83.6549 13.5 83.6525 13.5 83.6501 13.5C83.6476 13.5 83.6452 13.5 83.6428 13.5C83.6403 13.5 83.6379 13.5 83.6355 13.5C83.633 13.5 83.6306 13.5 83.6282 13.5C83.6257 13.5 83.6233 13.5 83.6209 13.5C83.6184 13.5 83.616 13.5 83.6136 13.5C83.6112 13.5 83.6087 13.5 83.6063 13.5C83.6039 13.5 83.6014 13.5 83.599 13.5C83.5966 13.5 83.5941 13.5 83.5917 13.5C83.5893 13.5 83.5868 13.5 83.5844 13.5C83.582 13.5 83.5795 13.5 83.5771 13.5C83.5747 13.5 83.5722 13.5 83.5698 13.5C83.5674 13.5 83.5649 13.5 83.5625 13.5C83.5601 13.5 83.5576 13.5 83.5552 13.5C83.5528 13.5 83.5503 13.5 83.5479 13.5C83.5455 13.5 83.543 13.5 83.5406 13.5C83.5382 13.5 83.5357 13.5 83.5333 13.5C83.5309 13.5 83.5284 13.5 83.526 13.5C83.5236 13.5 83.5211 13.5 83.5187 13.5C83.5163 13.5 83.5138 13.5 83.5114 13.5C83.509 13.5 83.5065 13.5 83.5041 13.5C83.5017 13.5 83.4992 13.5 83.4968 13.5C83.4944 13.5 83.4919 13.5 83.4895 13.5C83.4871 13.5 83.4846 13.5 83.4822 13.5C83.4797 13.5 83.4773 13.5 83.4749 13.5C83.4724 13.5 83.47 13.5 83.4676 13.5C83.4651 13.5 83.4627 13.5 83.4603 13.5C83.4578 13.5 83.4554 13.5 83.453 13.5C83.4505 13.5 83.4481 13.5 83.4457 13.5C83.4432 13.5 83.4408 13.5 83.4383 13.5C83.4359 13.5 83.4335 13.5 83.431 13.5C83.4286 13.5 83.4262 13.5 83.4237 13.5C83.4213 13.5 83.4189 13.5 83.4164 13.5C83.414 13.5 83.4115 13.5 83.4091 13.5C83.4067 13.5 83.4042 13.5 83.4018 13.5C83.3994 13.5 83.3969 13.5 83.3945 13.5C83.392 13.5 83.3896 13.5 83.3872 13.5C83.3847 13.5 83.3823 13.5 83.3799 13.5C83.3774 13.5 83.375 13.5 83.3725 13.5C83.3701 13.5 83.3677 13.5 83.3652 13.5C83.3628 13.5 83.3604 13.5 83.3579 13.5C83.3555 13.5 83.353 13.5 83.3506 13.5C83.3482 13.5 83.3457 13.5 83.3433 13.5C83.3409 13.5 83.3384 13.5 83.336 13.5C83.3335 13.5 83.3311 13.5 83.3287 13.5C83.3262 13.5 83.3238 13.5 83.3213 13.5C83.3189 13.5 83.3165 13.5 83.314 13.5C83.3116 13.5 83.3092 13.5 83.3067 13.5C83.3043 13.5 83.3018 13.5 83.2994 13.5C83.297 13.5 83.2945 13.5 83.2921 13.5C83.2896 13.5 83.2872 13.5 83.2848 13.5C83.2823 13.5 83.2799 13.5 83.2774 13.5C83.275 13.5 83.2726 13.5 83.2701 13.5C83.2677 13.5 83.2652 13.5 83.2628 13.5C83.2604 13.5 83.2579 13.5 83.2555 13.5C83.253 13.5 83.2506 13.5 83.2482 13.5C83.2457 13.5 83.2433 13.5 83.2408 13.5C83.2384 13.5 83.236 13.5 83.2335 13.5C83.2311 13.5 83.2286 13.5 83.2262 13.5C83.2237 13.5 83.2213 13.5 83.2189 13.5C83.2164 13.5 83.214 13.5 83.2115 13.5C83.2091 13.5 83.2067 13.5 83.2042 13.5C83.2018 13.5 83.1993 13.5 83.1969 13.5C83.1945 13.5 83.192 13.5 83.1896 13.5C83.1871 13.5 83.1847 13.5 83.1822 13.5C83.1798 13.5 83.1774 13.5 83.1749 13.5C83.1725 13.5 83.17 13.5 83.1676 13.5C83.1651 13.5 83.1627 13.5 83.1603 13.5C83.1578 13.5 83.1554 13.5 83.1529 13.5C83.1505 13.5 83.1481 13.5 83.1456 13.5C83.1432 13.5 83.1407 13.5 83.1383 13.5C83.1358 13.5 83.1334 13.5 83.131 13.5C83.1285 13.5 83.1261 13.5 83.1236 13.5C83.1212 13.5 83.1187 13.5 83.1163 13.5C83.1138 13.5 83.1114 13.5 83.109 13.5C83.1065 13.5 83.1041 13.5 83.1016 13.5C83.0992 13.5 83.0967 13.5 83.0943 13.5C83.0919 13.5 83.0894 13.5 83.087 13.5C83.0845 13.5 83.0821 13.5 83.0796 13.5C83.0772 13.5 83.0747 13.5 83.0723 13.5C83.0699 13.5 83.0674 13.5 83.065 13.5C83.0625 13.5 83.0601 13.5 83.0576 13.5C83.0552 13.5 83.0527 13.5 83.0503 13.5C83.0479 13.5 83.0454 13.5 83.043 13.5C83.0405 13.5 83.0381 13.5 83.0356 13.5C83.0332 13.5 83.0307 13.5 83.0283 13.5C83.0259 13.5 83.0234 13.5 83.021 13.5C83.0185 13.5 83.0161 13.5 83.0136 13.5C83.0112 13.5 83.0087 13.5 83.0063 13.5C83.0038 13.5 83.0014 13.5 82.999 13.5C82.9965 13.5 82.9941 13.5 82.9916 13.5C82.9892 13.5 82.9867 13.5 82.9843 13.5C82.9818 13.5 82.9794 13.5 82.9769 13.5C82.9745 13.5 82.972 13.5 82.9696 13.5C82.9672 13.5 82.9647 13.5 82.9623 13.5C82.9598 13.5 82.9574 13.5 82.9549 13.5C82.9525 13.5 82.95 13.5 82.9476 13.5C82.9451 13.5 82.9427 13.5 82.9402 13.5C82.9378 13.5 82.9354 13.5 82.9329 13.5C82.9305 13.5 82.928 13.5 82.9256 13.5C82.9231 13.5 82.9207 13.5 82.9182 13.5C82.9158 13.5 82.9133 13.5 82.9109 13.5C82.9084 13.5 82.906 13.5 82.9035 13.5C82.9011 13.5 82.8986 13.5 82.8962 13.5C82.8937 13.5 82.8913 13.5 82.8889 13.5C82.8864 13.5 82.884 13.5 82.8815 13.5C82.8791 13.5 82.8766 13.5 82.8742 13.5C82.8717 13.5 82.8693 13.5 82.8668 13.5C82.8644 13.5 82.8619 13.5 82.8595 13.5C82.857 13.5 82.8546 13.5 82.8521 13.5C82.8497 13.5 82.8472 13.5 82.8448 13.5C82.8423 13.5 82.8399 13.5 82.8374 13.5C82.835 13.5 82.8325 13.5 82.8301 13.5C82.8276 13.5 82.8252 13.5 82.8227 13.5C82.8203 13.5 82.8178 13.5 82.8154 13.5C82.8129 13.5 82.8105 13.5 82.808 13.5C82.8056 13.5 82.8031 13.5 82.8007 13.5C82.7983 13.5 82.7958 13.5 82.7934 13.5C82.7909 13.5 82.7885 13.5 82.786 13.5C82.7836 13.5 82.7811 13.5 82.7787 13.5C82.7762 13.5 82.7738 13.5 82.7713 13.5C82.7689 13.5 82.7664 13.5 82.764 13.5C82.7615 13.5 82.7591 13.5 82.7566 13.5C82.7542 13.5 82.7517 13.5 82.7493 13.5C82.7468 13.5 82.7444 13.5 82.7419 13.5C82.7395 13.5 82.737 13.5 82.7346 13.5C82.7321 13.5 82.7296 13.5 82.7272 13.5C82.7247 13.5 82.7223 13.5 82.7198 13.5C82.7174 13.5 82.7149 13.5 82.7125 13.5C82.71 13.5 82.7076 13.5 82.7051 13.5C82.7027 13.5 82.7002 13.5 82.6978 13.5C82.6953 13.5 82.6929 13.5 82.6904 13.5C82.688 13.5 82.6855 13.5 82.6831 13.5C82.6806 13.5 82.6782 13.5 82.6757 13.5C82.6733 13.5 82.6708 13.5 82.6684 13.5C82.6659 13.5 82.6635 13.5 82.661 13.5C82.6586 13.5 82.6561 13.5 82.6537 13.5C82.6512 13.5 82.6488 13.5 82.6463 13.5C82.6439 13.5 82.6414 13.5 82.6389 13.5C82.6365 13.5 82.634 13.5 82.6316 13.5C82.6291 13.5 82.6267 13.5 82.6242 13.5C82.6218 13.5 82.6193 13.5 82.6169 13.5C82.6144 13.5 82.612 13.5 82.6095 13.5C82.6071 13.5 82.6046 13.5 82.6022 13.5C82.5997 13.5 82.5973 13.5 82.5948 13.5C82.5924 13.5 82.5899 13.5 82.5874 13.5C82.585 13.5 82.5825 13.5 82.5801 13.5C82.5776 13.5 82.5752 13.5 82.5727 13.5C82.5703 13.5 82.5678 13.5 82.5654 13.5C82.5629 13.5 82.5605 13.5 82.558 13.5C82.5556 13.5 82.5531 13.5 82.5506 13.5C82.5482 13.5 82.5457 13.5 82.5433 13.5C82.5408 13.5 82.5384 13.5 82.5359 13.5C82.5335 13.5 82.531 13.5 82.5286 13.5C82.5261 13.5 82.5237 13.5 82.5212 13.5C82.5187 13.5 82.5163 13.5 82.5138 13.5C82.5114 13.5 82.5089 13.5 82.5065 13.5C82.504 13.5 82.5016 13.5 82.4991 13.5C82.4967 13.5 82.4942 13.5 82.4918 13.5C82.4893 13.5 82.4868 13.5 82.4844 13.5C82.4819 13.5 82.4795 13.5 82.477 13.5C82.4746 13.5 82.4721 13.5 82.4697 13.5C82.4672 13.5 82.4648 13.5 82.4623 13.5C82.4598 13.5 82.4574 13.5 82.4549 13.5C82.4525 13.5 82.45 13.5 82.4476 13.5C82.4451 13.5 82.4427 13.5 82.4402 13.5C82.4377 13.5 82.4353 13.5 82.4328 13.5C82.4304 13.5 82.4279 13.5 82.4255 13.5C82.423 13.5 82.4206 13.5 82.4181 13.5C82.4156 13.5 82.4132 13.5 82.4107 13.5C82.4083 13.5 82.4058 13.5 82.4034 13.5C82.4009 13.5 82.3985 13.5 82.396 13.5C82.3935 13.5 82.3911 13.5 82.3886 13.5C82.3862 13.5 82.3837 13.5 82.3813 13.5C82.3788 13.5 82.3764 13.5 82.3739 13.5C82.3714 13.5 82.369 13.5 82.3665 13.5C82.3641 13.5 82.3616 13.5 82.3592 13.5C82.3567 13.5 82.3543 13.5 82.3518 13.5C82.3493 13.5 82.3469 13.5 82.3444 13.5C82.342 13.5 82.3395 13.5 82.3371 13.5C82.3346 13.5 82.3321 13.5 82.3297 13.5C82.3272 13.5 82.3248 13.5 82.3223 13.5C82.3199 13.5 82.3174 13.5 82.3149 13.5C82.3125 13.5 82.31 13.5 82.3076 13.5C82.3051 13.5 82.3027 13.5 82.3002 13.5C82.2977 13.5 82.2953 13.5 82.2928 13.5C82.2904 13.5 82.2879 13.5 82.2855 13.5C82.283 13.5 82.2805 13.5 82.2781 13.5C82.2756 13.5 82.2732 13.5 82.2707 13.5C82.2683 13.5 82.2658 13.5 82.2633 13.5C82.2609 13.5 82.2584 13.5 82.256 13.5C82.2535 13.5 82.2511 13.5 82.2486 13.5C82.2461 13.5 82.2437 13.5 82.2412 13.5C82.2388 13.5 82.2363 13.5 82.2339 13.5C82.2314 13.5 82.2289 13.5 82.2265 13.5C82.224 13.5 82.2216 13.5 82.2191 13.5C82.2166 13.5 82.2142 13.5 82.2117 13.5C82.2093 13.5 82.2068 13.5 82.2044 13.5C82.2019 13.5 82.1994 13.5 82.197 13.5C82.1945 13.5 82.1921 13.5 82.1896 13.5C82.1872 13.5 82.1847 13.5 82.1822 13.5C82.1798 13.5 82.1773 13.5 82.1749 13.5C82.1724 13.5 82.1699 13.5 82.1675 13.5C82.165 13.5 82.1626 13.5 82.1601 13.5C82.1576 13.5 82.1552 13.5 82.1527 13.5C82.1503 13.5 82.1478 13.5 82.1454 13.5C82.1429 13.5 82.1404 13.5 82.138 13.5C82.1355 13.5 82.1331 13.5 82.1306 13.5C82.1281 13.5 82.1257 13.5 82.1232 13.5C82.1208 13.5 82.1183 13.5 82.1158 13.5C82.1134 13.5 82.1109 13.5 82.1085 13.5C82.106 13.5 82.1035 13.5 82.1011 13.5C82.0986 13.5 82.0962 13.5 82.0937 13.5C82.0913 13.5 82.0888 13.5 82.0863 13.5C82.0839 13.5 82.0814 13.5 82.079 13.5C82.0765 13.5 82.074 13.5 82.0716 13.5C82.0691 13.5 82.0667 13.5 82.0642 13.5C82.0617 13.5 82.0593 13.5 82.0568 13.5C82.0544 13.5 82.0519 13.5 82.0494 13.5C82.047 13.5 82.0445 13.5 82.0421 13.5C82.0396 13.5 82.0371 13.5 82.0347 13.5C82.0322 13.5 82.0298 13.5 82.0273 13.5C82.0248 13.5 82.0224 13.5 82.0199 13.5C82.0175 13.5 82.015 13.5 82.0125 13.5C82.0101 13.5 82.0076 13.5 82.0052 13.5C82.0027 13.5 82.0002 13.5 81.9978 13.5C81.9953 13.5 81.9929 13.5 81.9904 13.5C81.9879 13.5 81.9855 13.5 81.983 13.5C81.9806 13.5 81.9781 13.5 81.9756 13.5C81.9732 13.5 81.9707 13.5 81.9682 13.5C81.9658 13.5 81.9633 13.5 81.9609 13.5C81.9584 13.5 81.9559 13.5 81.9535 13.5C81.951 13.5 81.9486 13.5 81.9461 13.5C81.9436 13.5 81.9412 13.5 81.9387 13.5C81.9363 13.5 81.9338 13.5 81.9313 13.5C81.9289 13.5 81.9264 13.5 81.924 13.5C81.9215 13.5 81.919 13.5 81.9166 13.5C81.9141 13.5 81.9116 13.5 81.9092 13.5C81.9067 13.5 81.9043 13.5 81.9018 13.5C81.8993 13.5 81.8969 13.5 81.8944 13.5C81.892 13.5 81.8895 13.5 81.887 13.5C81.8846 13.5 81.8821 13.5 81.8796 13.5C81.8772 13.5 81.8747 13.5 81.8723 13.5C81.8698 13.5 81.8673 13.5 81.8649 13.5C81.8624 13.5 81.86 13.5 81.8575 13.5C81.855 13.5 81.8526 13.5 81.8501 13.5C81.8476 13.5 81.8452 13.5 81.8427 13.5C81.8403 13.5 81.8378 13.5 81.8353 13.5C81.8329 13.5 81.8304 13.5 81.828 13.5C81.8255 13.5 81.823 13.5 81.8206 13.5C81.8181 13.5 81.8156 13.5 81.8132 13.5C81.8107 13.5 81.8083 13.5 81.8058 13.5C81.8033 13.5 81.8009 13.5 81.7984 13.5C81.7959 13.5 81.7935 13.5 81.791 13.5C81.7886 13.5 81.7861 13.5 81.7836 13.5C81.7812 13.5 81.7787 13.5 81.7762 13.5C81.7738 13.5 81.7713 13.5 81.7689 13.5C81.7664 13.5 81.7639 13.5 81.7615 13.5C81.759 13.5 81.7565 13.5 81.7541 13.5C81.7516 13.5 81.7492 13.5 81.7467 13.5C81.7442 13.5 81.7418 13.5 81.7393 13.5C81.7368 13.5 81.7344 13.5 81.7319 13.5C81.7295 13.5 81.727 13.5 81.7245 13.5C81.7221 13.5 81.7196 13.5 81.7171 13.5C81.7147 13.5 81.7122 13.5 81.7098 13.5C81.7073 13.5 81.7048 13.5 81.7024 13.5C81.6999 13.5 81.6974 13.5 81.695 13.5C81.6925 13.5 81.6901 13.5 81.6876 13.5C81.6851 13.5 81.6827 13.5 81.6802 13.5C81.6777 13.5 81.6753 13.5 81.6728 13.5C81.6704 13.5 81.6679 13.5 81.6654 13.5C81.663 13.5 81.6605 13.5 81.658 13.5C81.6556 13.5 81.6531 13.5 81.6506 13.5C81.6482 13.5 81.6457 13.5 81.6433 13.5C81.6408 13.5 81.6383 13.5 81.6359 13.5C81.6334 13.5 81.6309 13.5 81.6285 13.5C81.626 13.5 81.6236 13.5 81.6211 13.5C81.6186 13.5 81.6162 13.5 81.6137 13.5C81.6112 13.5 81.6088 13.5 81.6063 13.5C81.6038 13.5 81.6014 13.5 81.5989 13.5C81.5965 13.5 81.594 13.5 81.5915 13.5C81.5891 13.5 81.5866 13.5 81.5841 13.5C81.5817 13.5 81.5792 13.5 81.5767 13.5C81.5743 13.5 81.5718 13.5 81.5694 13.5C81.5669 13.5 81.5644 13.5 81.562 13.5C81.5595 13.5 81.557 13.5 81.5546 13.5C81.5521 13.5 81.5496 13.5 81.5472 13.5C81.5447 13.5 81.5423 13.5 81.5398 13.5C81.5373 13.5 81.5349 13.5 81.5324 13.5C81.5299 13.5 81.5275 13.5 81.525 13.5C81.5225 13.5 81.5201 13.5 81.5176 13.5C81.5151 13.5 81.5127 13.5 81.5102 13.5C81.5078 13.5 81.5053 13.5 81.5028 13.5C81.5004 13.5 81.4979 13.5 81.4954 13.5C81.493 13.5 81.4905 13.5 81.488 13.5C81.4856 13.5 81.4831 13.5 81.4807 13.5C81.4782 13.5 81.4757 13.5 81.4733 13.5C81.4708 13.5 81.4683 13.5 81.4659 13.5C81.4634 13.5 81.4609 13.5 81.4585 13.5C81.456 13.5 81.4535 13.5 81.4511 13.5C81.4486 13.5 81.4462 13.5 81.4437 13.5C81.4412 13.5 81.4388 13.5 81.4363 13.5C81.4338 13.5 81.4314 13.5 81.4289 13.5C81.4264 13.5 81.424 13.5 81.4215 13.5C81.419 13.5 81.4166 13.5 81.4141 13.5C81.4117 13.5 81.4092 13.5 81.4067 13.5C81.4043 13.5 81.4018 13.5 81.3993 13.5C81.3969 13.5 81.3944 13.5 81.3919 13.5C81.3895 13.5 81.387 13.5 81.3845 13.5C81.3821 13.5 81.3796 13.5 81.3771 13.5C81.3747 13.5 81.3722 13.5 81.3698 13.5C81.3673 13.5 81.3648 13.5 81.3624 13.5C81.3599 13.5 81.3574 13.5 81.355 13.5C81.3525 13.5 81.35 13.5 81.3476 13.5C81.3451 13.5 81.3426 13.5 81.3402 13.5C81.3377 13.5 81.3353 13.5 81.3328 13.5C81.3303 13.5 81.3279 13.5 81.3254 13.5C81.3229 13.5 81.3205 13.5 81.318 13.5C81.3155 13.5 81.3131 13.5 81.3106 13.5C81.3081 13.5 81.3057 13.5 81.3032 13.5C81.3007 13.5 81.2983 13.5 81.2958 13.5C81.2933 13.5 81.2909 13.5 81.2884 13.5C81.286 13.5 81.2835 13.5 81.281 13.5C81.2786 13.5 81.2761 13.5 81.2736 13.5C81.2712 13.5 81.2687 13.5 81.2662 13.5C81.2638 13.5 81.2613 13.5 81.2588 13.5C81.2564 13.5 81.2539 13.5 81.2514 13.5C81.249 13.5 81.2465 13.5 81.2441 13.5C81.2416 13.5 81.2391 13.5 81.2367 13.5C81.2342 13.5 81.2317 13.5 81.2293 13.5C81.2268 13.5 81.2243 13.5 81.2219 13.5C81.2194 13.5 81.2169 13.5 81.2145 13.5C81.212 13.5 81.2095 13.5 81.2071 13.5C81.2046 13.5 81.2021 13.5 81.1997 13.5C81.1972 13.5 81.1948 13.5 81.1923 13.5C81.1898 13.5 81.1874 13.5 81.1849 13.5C81.1824 13.5 81.18 13.5 81.1775 13.5C81.175 13.5 81.1726 13.5 81.1701 13.5C81.1676 13.5 81.1652 13.5 81.1627 13.5C81.1602 13.5 81.1578 13.5 81.1553 13.5C81.1528 13.5 81.1504 13.5 81.1479 13.5C81.1454 13.5 81.143 13.5 81.1405 13.5C81.1381 13.5 81.1356 13.5 81.1331 13.5C81.1307 13.5 81.1282 13.5 81.1257 13.5C81.1233 13.5 81.1208 13.5 81.1183 13.5C81.1159 13.5 81.1134 13.5 81.1109 13.5C81.1085 13.5 81.106 13.5 81.1035 13.5C81.1011 13.5 81.0986 13.5 81.0961 13.5C81.0937 13.5 81.0912 13.5 81.0887 13.5C81.0863 13.5 81.0838 13.5 81.0814 13.5C81.0789 13.5 81.0764 13.5 81.074 13.5C81.0715 13.5 81.069 13.5 81.0666 13.5C81.0641 13.5 81.0616 13.5 81.0592 13.5C81.0567 13.5 81.0542 13.5 81.0518 13.5C81.0493 13.5 81.0468 13.5 81.0444 13.5C81.0419 13.5 81.0394 13.5 81.037 13.5C81.0345 13.5 81.032 13.5 81.0296 13.5C81.0271 13.5 81.0247 13.5 81.0222 13.5C81.0197 13.5 81.0173 13.5 81.0148 13.5C81.0123 13.5 81.0099 13.5 81.0074 13.5C81.0049 13.5 81.0025 13.5 81 13.5V17.5ZM92.2515 17.5C92.256 17.5 92.2604 17.5 92.2649 17.5C92.2693 17.5 92.2738 17.5 92.2782 17.5C92.2827 17.5 92.2871 17.5 92.2915 17.5C92.296 17.5 92.3004 17.5 92.3049 17.5C92.3093 17.5 92.3137 17.5 92.3182 17.5C92.3226 17.5 92.327 17.5 92.3314 17.5C92.3358 17.5 92.3403 17.5 92.3447 17.5C92.3491 17.5 92.3535 17.5 92.3579 17.5C92.3623 17.5 92.3667 17.5 92.3711 17.5C92.3755 17.5 92.3799 17.5 92.3843 17.5C92.3887 17.5 92.3931 17.5 92.3975 17.5C92.4019 17.5 92.4063 17.5 92.4107 17.5C92.4151 17.5 92.4194 17.5 92.4238 17.5C92.4282 17.5 92.4326 17.5 92.4369 17.5C92.4413 17.5 92.4457 17.5 92.45 17.5C92.4544 17.5 92.4588 17.5 92.4631 17.5C92.4675 17.5 92.4718 17.5 92.4762 17.5C92.4805 17.5 92.4849 17.5 92.4892 17.5C92.4936 17.5 92.4979 17.5 92.5023 17.5C92.5066 17.5 92.5109 17.5 92.5153 17.5C92.5196 17.5 92.5239 17.5 92.5283 17.5C92.5326 17.5 92.5369 17.5 92.5412 17.5C92.5455 17.5 92.5499 17.5 92.5542 17.5C92.5585 17.5 92.5628 17.5 92.5671 17.5C92.5714 17.5 92.5757 17.5 92.58 17.5C92.5843 17.5 92.5886 17.5 92.5929 17.5C92.5972 17.5 92.6015 17.5 92.6058 17.5C92.6101 17.5 92.6143 17.5 92.6186 17.5C92.6229 17.5 92.6272 17.5 92.6315 17.5C92.6357 17.5 92.64 17.5 92.6443 17.5C92.6485 17.5 92.6528 17.5 92.6571 17.5C92.6613 17.5 92.6656 17.5 92.6698 17.5C92.6741 17.5 92.6783 17.5 92.6826 17.5C92.6868 17.5 92.6911 17.5 92.6953 17.5C92.6996 17.5 92.7038 17.5 92.708 17.5C92.7123 17.5 92.7165 17.5 92.7207 17.5C92.725 17.5 92.7292 17.5 92.7334 17.5C92.7376 17.5 92.7418 17.5 92.7461 17.5C92.7503 17.5 92.7545 17.5 92.7587 17.5C92.7629 17.5 92.7671 17.5 92.7713 17.5C92.7755 17.5 92.7797 17.5 92.7839 17.5C92.7881 17.5 92.7923 17.5 92.7965 17.5C92.8007 17.5 92.8049 17.5 92.809 17.5C92.8132 17.5 92.8174 17.5 92.8216 17.5C92.8258 17.5 92.8299 17.5 92.8341 17.5C92.8383 17.5 92.8424 17.5 92.8466 17.5C92.8508 17.5 92.8549 17.5 92.8591 17.5C92.8632 17.5 92.8674 17.5 92.8715 17.5C92.8757 17.5 92.8798 17.5 92.884 17.5C92.8881 17.5 92.8922 17.5 92.8964 17.5C92.9005 17.5 92.9046 17.5 92.9088 17.5C92.9129 17.5 92.917 17.5 92.9211 17.5C92.9253 17.5 92.9294 17.5 92.9335 17.5C92.9376 17.5 92.9417 17.5 92.9458 17.5C92.9499 17.5 92.954 17.5 92.9581 17.5C92.9622 17.5 92.9663 17.5 92.9704 17.5C92.9745 17.5 92.9786 17.5 92.9827 17.5C92.9868 17.5 92.9909 17.5 92.995 17.5C92.9991 17.5 93.0031 17.5 93.0072 17.5C93.0113 17.5 93.0153 17.5 93.0194 17.5C93.0235 17.5 93.0275 17.5 93.0316 17.5C93.0357 17.5 93.0397 17.5 93.0438 17.5C93.0478 17.5 93.0519 17.5 93.0559 17.5C93.06 17.5 93.064 17.5 93.0681 17.5C93.0721 17.5 93.0761 17.5 93.0802 17.5C93.0842 17.5 93.0882 17.5 93.0923 17.5C93.0963 17.5 93.1003 17.5 93.1043 17.5C93.1083 17.5 93.1124 17.5 93.1164 17.5C93.1204 17.5 93.1244 17.5 93.1284 17.5C93.1324 17.5 93.1364 17.5 93.1404 17.5C93.1444 17.5 93.1484 17.5 93.1524 17.5C93.1564 17.5 93.1604 17.5 93.1644 17.5C93.1683 17.5 93.1723 17.5 93.1763 17.5C93.1803 17.5 93.1843 17.5 93.1882 17.5C93.1922 17.5 93.1962 17.5 93.2001 17.5C93.2041 17.5 93.2081 17.5 93.212 17.5C93.216 17.5 93.2199 17.5 93.2239 17.5C93.2278 17.5 93.2318 17.5 93.2357 17.5C93.2397 17.5 93.2436 17.5 93.2475 17.5C93.2515 17.5 93.2554 17.5 93.2593 17.5C93.2633 17.5 93.2672 17.5 93.2711 17.5C93.275 17.5 93.279 17.5 93.2829 17.5C93.2868 17.5 93.2907 17.5 93.2946 17.5C93.2985 17.5 93.3024 17.5 93.3063 17.5C93.3102 17.5 93.3141 17.5 93.318 17.5C93.3219 17.5 93.3258 17.5 93.3297 17.5C93.3336 17.5 93.3375 17.5 93.3413 17.5C93.3452 17.5 93.3491 17.5 93.353 17.5C93.3568 17.5 93.3607 17.5 93.3646 17.5C93.3684 17.5 93.3723 17.5 93.3762 17.5C93.38 17.5 93.3839 17.5 93.3877 17.5C93.3916 17.5 93.3954 17.5 93.3993 17.5C93.4031 17.5 93.4069 17.5 93.4108 17.5C93.4146 17.5 93.4185 17.5 93.4223 17.5C93.4261 17.5 93.4299 17.5 93.4338 17.5C93.4376 17.5 93.4414 17.5 93.4452 17.5C93.449 17.5 93.4529 17.5 93.4567 17.5C93.4605 17.5 93.4643 17.5 93.4681 17.5C93.4719 17.5 93.4757 17.5 93.4795 17.5C93.4833 17.5 93.4871 17.5 93.4908 17.5C93.4946 17.5 93.4984 17.5 93.5022 17.5C93.506 17.5 93.5097 17.5 93.5135 17.5C93.5173 17.5 93.5211 17.5 93.5248 17.5C93.5286 17.5 93.5324 17.5 93.5361 17.5C93.5399 17.5 93.5436 17.5 93.5474 17.5C93.5511 17.5 93.5549 17.5 93.5586 17.5C93.5624 17.5 93.5661 17.5 93.5698 17.5C93.5736 17.5 93.5773 17.5 93.581 17.5C93.5848 17.5 93.5885 17.5 93.5922 17.5C93.5959 17.5 93.5997 17.5 93.6034 17.5C93.6071 17.5 93.6108 17.5 93.6145 17.5C93.6182 17.5 93.6219 17.5 93.6256 17.5C93.6293 17.5 93.633 17.5 93.6367 17.5C93.6404 17.5 93.6441 17.5 93.6478 17.5C93.6515 17.5 93.6551 17.5 93.6588 17.5C93.6625 17.5 93.6662 17.5 93.6698 17.5C93.6735 17.5 93.6772 17.5 93.6808 17.5C93.6845 17.5 93.6882 17.5 93.6918 17.5C93.6955 17.5 93.6991 17.5 93.7028 17.5C93.7064 17.5 93.7101 17.5 93.7137 17.5C93.7173 17.5 93.721 17.5 93.7246 17.5C93.7283 17.5 93.7319 17.5 93.7355 17.5C93.7391 17.5 93.7428 17.5 93.7464 17.5C93.75 17.5 93.7536 17.5 93.7572 17.5C93.7608 17.5 93.7644 17.5 93.768 17.5C93.7716 17.5 93.7752 17.5 93.7788 17.5C93.7824 17.5 93.786 17.5 93.7896 17.5C93.7932 17.5 93.7968 17.5 93.8004 17.5C93.804 17.5 93.8075 17.5 93.8111 17.5C93.8147 17.5 93.8183 17.5 93.8218 17.5C93.8254 17.5 93.829 17.5 93.8325 17.5C93.8361 17.5 93.8396 17.5 93.8432 17.5C93.8467 17.5 93.8503 17.5 93.8538 17.5C93.8574 17.5 93.8609 17.5 93.8644 17.5C93.868 17.5 93.8715 17.5 93.875 17.5C93.8786 17.5 93.8821 17.5 93.8856 17.5C93.8891 17.5 93.8927 17.5 93.8962 17.5C93.8997 17.5 93.9032 17.5 93.9067 17.5C93.9102 17.5 93.9137 17.5 93.9172 17.5C93.9207 17.5 93.9242 17.5 93.9277 17.5C93.9312 17.5 93.9347 17.5 93.9382 17.5C93.9416 17.5 93.9451 17.5 93.9486 17.5C93.9521 17.5 93.9555 17.5 93.959 17.5C93.9625 17.5 93.9659 17.5 93.9694 17.5C93.9729 17.5 93.9763 17.5 93.9798 17.5C93.9832 17.5 93.9867 17.5 93.9901 17.5C93.9936 17.5 93.997 17.5 94.0004 17.5C94.0039 17.5 94.0073 17.5 94.0107 17.5C94.0142 17.5 94.0176 17.5 94.021 17.5C94.0245 17.5 94.0279 17.5 94.0313 17.5C94.0347 17.5 94.0381 17.5 94.0415 17.5C94.0449 17.5 94.0483 17.5 94.0517 17.5C94.0551 17.5 94.0585 17.5 94.0619 17.5C94.0653 17.5 94.0687 17.5 94.0721 17.5C94.0755 17.5 94.0788 17.5 94.0822 17.5C94.0856 17.5 94.089 17.5 94.0923 17.5C94.0957 17.5 94.0991 17.5 94.1024 17.5C94.1058 17.5 94.1091 17.5 94.1125 17.5C94.1159 17.5 94.1192 17.5 94.1225 17.5C94.1259 17.5 94.1292 17.5 94.1326 17.5C94.1359 17.5 94.1392 17.5 94.1426 17.5C94.1459 17.5 94.1492 17.5 94.1525 17.5C94.1559 17.5 94.1592 17.5 94.1625 17.5C94.1658 17.5 94.1691 17.5 94.1724 17.5C94.1757 17.5 94.179 17.5 94.1823 17.5C94.1856 17.5 94.1889 17.5 94.1922 17.5C94.1955 17.5 94.1988 17.5 94.2021 17.5C94.2054 17.5 94.2086 17.5 94.2119 17.5C94.2152 17.5 94.2185 17.5 94.2217 17.5C94.225 17.5 94.2283 17.5 94.2315 17.5C94.2348 17.5 94.238 17.5 94.2413 17.5C94.2445 17.5 94.2478 17.5 94.251 17.5C94.2543 17.5 94.2575 17.5 94.2607 17.5C94.264 17.5 94.2672 17.5 94.2704 17.5C94.2737 17.5 94.2769 17.5 94.2801 17.5C94.2833 17.5 94.2865 17.5 94.2898 17.5C94.293 17.5 94.2962 17.5 94.2994 17.5C94.3026 17.5 94.3058 17.5 94.309 17.5C94.3122 17.5 94.3154 17.5 94.3186 17.5C94.3217 17.5 94.3249 17.5 94.3281 17.5C94.3313 17.5 94.3345 17.5 94.3376 17.5C94.3408 17.5 94.344 17.5 94.3471 17.5C94.3503 17.5 94.3535 17.5 94.3566 17.5C94.3598 17.5 94.3629 17.5 94.3661 17.5C94.3692 17.5 94.3724 17.5 94.3755 17.5C94.3786 17.5 94.3818 17.5 94.3849 17.5C94.388 17.5 94.3912 17.5 94.3943 17.5C94.3974 17.5 94.4005 17.5 94.4037 17.5C94.4068 17.5 94.4099 17.5 94.413 17.5C94.4161 17.5 94.4192 17.5 94.4223 17.5C94.4254 17.5 94.4285 17.5 94.4316 17.5C94.4347 17.5 94.4378 17.5 94.4409 17.5C94.4439 17.5 94.447 17.5 94.4501 17.5C94.4532 17.5 94.4562 17.5 94.4593 17.5C94.4624 17.5 94.4654 17.5 94.4685 17.5C94.4716 17.5 94.4746 17.5 94.4777 17.5C94.4807 17.5 94.4838 17.5 94.4868 17.5C94.4898 17.5 94.4929 17.5 94.4959 17.5C94.499 17.5 94.502 17.5 94.505 17.5C94.508 17.5 94.5111 17.5 94.5141 17.5C94.5171 17.5 94.5201 17.5 94.5231 17.5C94.5261 17.5 94.5291 17.5 94.5321 17.5C94.5351 17.5 94.5381 17.5 94.5411 17.5C94.5441 17.5 94.5471 17.5 94.5501 17.5C94.5531 17.5 94.5561 17.5 94.559 17.5C94.562 17.5 94.565 17.5 94.568 17.5C94.5709 17.5 94.5739 17.5 94.5769 17.5C94.5798 17.5 94.5828 17.5 94.5857 17.5C94.5887 17.5 94.5916 17.5 94.5946 17.5C94.5975 17.5 94.6005 17.5 94.6034 17.5C94.6063 17.5 94.6093 17.5 94.6122 17.5C94.6151 17.5 94.6181 17.5 94.621 17.5C94.6239 17.5 94.6268 17.5 94.6297 17.5C94.6326 17.5 94.6355 17.5 94.6384 17.5C94.6413 17.5 94.6442 17.5 94.6471 17.5C94.65 17.5 94.6529 17.5 94.6558 17.5C94.6587 17.5 94.6616 17.5 94.6645 17.5C94.6673 17.5 94.6702 17.5 94.6731 17.5C94.6759 17.5 94.6788 17.5 94.6817 17.5C94.6845 17.5 94.6874 17.5 94.6902 17.5C94.6931 17.5 94.6959 17.5 94.6988 17.5C94.7016 17.5 94.7045 17.5 94.7073 17.5C94.7102 17.5 94.713 17.5 94.7158 17.5C94.7186 17.5 94.7215 17.5 94.7243 17.5C94.7271 17.5 94.7299 17.5 94.7327 17.5C94.7355 17.5 94.7383 17.5 94.7412 17.5C94.744 17.5 94.7468 17.5 94.7495 17.5C94.7523 17.5 94.7551 17.5 94.7579 17.5C94.7607 17.5 94.7635 17.5 94.7663 17.5C94.769 17.5 94.7718 17.5 94.7746 17.5C94.7774 17.5 94.7801 17.5 94.7829 17.5C94.7856 17.5 94.7884 17.5 94.7911 17.5C94.7939 17.5 94.7966 17.5 94.7994 17.5C94.8021 17.5 94.8049 17.5 94.8076 17.5C94.8103 17.5 94.8131 17.5 94.8158 17.5C94.8185 17.5 94.8212 17.5 94.824 17.5C94.8267 17.5 94.8294 17.5 94.8321 17.5C94.8348 17.5 94.8375 17.5 94.8402 17.5C94.8429 17.5 94.8456 17.5 94.8483 17.5C94.851 17.5 94.8537 17.5 94.8564 17.5C94.8591 17.5 94.8617 17.5 94.8644 17.5C94.8671 17.5 94.8698 17.5 94.8724 17.5C94.8751 17.5 94.8778 17.5 94.8804 17.5C94.8831 17.5 94.8857 17.5 94.8884 17.5C94.891 17.5 94.8937 17.5 94.8963 17.5C94.899 17.5 94.9016 17.5 94.9042 17.5C94.9069 17.5 94.9095 17.5 94.9121 17.5C94.9147 17.5 94.9174 17.5 94.92 17.5C94.9226 17.5 94.9252 17.5 94.9278 17.5C94.9304 17.5 94.933 17.5 94.9356 17.5C94.9382 17.5 94.9408 17.5 94.9434 17.5C94.946 17.5 94.9486 17.5 94.9511 17.5C94.9537 17.5 94.9563 17.5 94.9589 17.5C94.9614 17.5 94.964 17.5 94.9666 17.5C94.9691 17.5 94.9717 17.5 94.9743 17.5C94.9768 17.5 94.9794 17.5 94.9819 17.5C94.9845 17.5 94.987 17.5 94.9895 17.5C94.9921 17.5 94.9946 17.5 94.9971 17.5C94.9997 17.5 95.0022 17.5 95.0047 17.5C95.0072 17.5 95.0097 17.5 95.0122 17.5C95.0148 17.5 95.0173 17.5 95.0198 17.5C95.0223 17.5 95.0248 17.5 95.0273 17.5C95.0298 17.5 95.0322 17.5 95.0347 17.5C95.0372 17.5 95.0397 17.5 95.0422 17.5C95.0446 17.5 95.0471 17.5 95.0496 17.5C95.052 17.5 95.0545 17.5 95.057 17.5C95.0594 17.5 95.0619 17.5 95.0643 17.5C95.0668 17.5 95.0692 17.5 95.0717 17.5C95.0741 17.5 95.0765 17.5 95.079 17.5C95.0814 17.5 95.0838 17.5 95.0863 17.5C95.0887 17.5 95.0911 17.5 95.0935 17.5C95.0959 17.5 95.0983 17.5 95.1007 17.5C95.1031 17.5 95.1055 17.5 95.1079 17.5C95.1103 17.5 95.1127 17.5 95.1151 17.5C95.1175 17.5 95.1199 17.5 95.1223 17.5C95.1246 17.5 95.127 17.5 95.1294 17.5C95.1318 17.5 95.1341 17.5 95.1365 17.5C95.1388 17.5 95.1412 17.5 95.1436 17.5C95.1459 17.5 95.1483 17.5 95.1506 17.5C95.1529 17.5 95.1553 17.5 95.1576 17.5C95.1599 17.5 95.1623 17.5 95.1646 17.5C95.1669 17.5 95.1692 17.5 95.1716 17.5C95.1739 17.5 95.1762 17.5 95.1785 17.5C95.1808 17.5 95.1831 17.5 95.1854 17.5C95.1877 17.5 95.19 17.5 95.1923 17.5C95.1946 17.5 95.1969 17.5 95.1991 17.5C95.2014 17.5 95.2037 17.5 95.206 17.5C95.2082 17.5 95.2105 17.5 95.2128 17.5C95.215 17.5 95.2173 17.5 95.2195 17.5C95.2218 17.5 95.224 17.5 95.2263 17.5C95.2285 17.5 95.2308 17.5 95.233 17.5C95.2352 17.5 95.2375 17.5 95.2397 17.5C95.2419 17.5 95.2441 17.5 95.2464 17.5C95.2486 17.5 95.2508 17.5 95.253 17.5C95.2552 17.5 95.2574 17.5 95.2596 17.5C95.2618 17.5 95.264 17.5 95.2662 17.5C95.2684 17.5 95.2706 17.5 95.2728 17.5C95.2749 17.5 95.2771 17.5 95.2793 17.5C95.2815 17.5 95.2836 17.5 95.2858 17.5C95.2879 17.5 95.2901 17.5 95.2923 17.5C95.2944 17.5 95.2966 17.5 95.2987 17.5C95.3008 17.5 95.303 17.5 95.3051 17.5C95.3073 17.5 95.3094 17.5 95.3115 17.5C95.3136 17.5 95.3158 17.5 95.3179 17.5C95.32 17.5 95.3221 17.5 95.3242 17.5C95.3263 17.5 95.3284 17.5 95.3305 17.5C95.3326 17.5 95.3347 17.5 95.3368 17.5C95.3389 17.5 95.341 17.5 95.3431 17.5C95.3451 17.5 95.3472 17.5 95.3493 17.5C95.3514 17.5 95.3534 17.5 95.3555 17.5C95.3575 17.5 95.3596 17.5 95.3617 17.5C95.3637 17.5 95.3658 17.5 95.3678 17.5C95.3698 17.5 95.3719 17.5 95.3739 17.5C95.3759 17.5 95.378 17.5 95.38 17.5C95.382 17.5 95.384 17.5 95.3861 17.5C95.3881 17.5 95.3901 17.5 95.3921 17.5C95.3941 17.5 95.3961 17.5 95.3981 17.5C95.4001 17.5 95.4021 17.5 95.4041 17.5C95.4061 17.5 95.408 17.5 95.41 17.5C95.412 17.5 95.414 17.5 95.4159 17.5C95.4179 17.5 95.4199 17.5 95.4218 17.5C95.4238 17.5 95.4257 17.5 95.4277 17.5C95.4296 17.5 95.4316 17.5 95.4335 17.5C95.4355 17.5 95.4374 17.5 95.4393 17.5C95.4413 17.5 95.4432 17.5 95.4451 17.5C95.447 17.5 95.449 17.5 95.4509 17.5C95.4528 17.5 95.4547 17.5 95.4566 17.5C95.4585 17.5 95.4604 17.5 95.4623 17.5C95.4642 17.5 95.4661 17.5 95.468 17.5C95.4698 17.5 95.4717 17.5 95.4736 17.5C95.4755 17.5 95.4773 17.5 95.4792 17.5C95.4811 17.5 95.4829 17.5 95.4848 17.5C95.4866 17.5 95.4885 17.5 95.4903 17.5C95.4922 17.5 95.494 17.5 95.4959 17.5C95.4977 17.5 95.4995 17.5 95.5014 17.5C95.5032 17.5 95.505 17.5 95.5068 17.5C95.5086 17.5 95.5105 17.5 95.5123 17.5C95.5141 17.5 95.5159 17.5 95.5177 17.5C95.5195 17.5 95.5213 17.5 95.5231 17.5C95.5249 17.5 95.5266 17.5 95.5284 17.5C95.5302 17.5 95.532 17.5 95.5337 17.5C95.5355 17.5 95.5373 17.5 95.539 17.5C95.5408 17.5 95.5426 17.5 95.5443 17.5C95.5461 17.5 95.5478 17.5 95.5496 17.5C95.5513 17.5 95.553 17.5 95.5548 17.5C95.5565 17.5 95.5582 17.5 95.56 17.5C95.5617 17.5 95.5634 17.5 95.5651 17.5C95.5668 17.5 95.5685 17.5 95.5702 17.5C95.5719 17.5 95.5736 17.5 95.5753 17.5C95.577 17.5 95.5787 17.5 95.5804 17.5C95.5821 17.5 95.5838 17.5 95.5854 17.5C95.5871 17.5 95.5888 17.5 95.5904 17.5C95.5921 17.5 95.5938 17.5 95.5954 17.5C95.5971 17.5 95.5987 17.5 95.6004 17.5C95.602 17.5 95.6037 17.5 95.6053 17.5C95.6069 17.5 95.6086 17.5 95.6102 17.5C95.6118 17.5 95.6134 17.5 95.6151 17.5C95.6167 17.5 95.6183 17.5 95.6199 17.5C95.6215 17.5 95.6231 17.5 95.6247 17.5C95.6263 17.5 95.6279 17.5 95.6295 17.5C95.6311 17.5 95.6327 17.5 95.6342 17.5C95.6358 17.5 95.6374 17.5 95.639 17.5C95.6405 17.5 95.6421 17.5 95.6436 17.5C95.6452 17.5 95.6468 17.5 95.6483 17.5C95.6499 17.5 95.6514 17.5 95.6529 17.5C95.6545 17.5 95.656 17.5 95.6575 17.5C95.6591 17.5 95.6606 17.5 95.6621 17.5C95.6636 17.5 95.6652 17.5 95.6667 17.5C95.6682 17.5 95.6697 17.5 95.6712 17.5C95.6727 17.5 95.6742 17.5 95.6757 17.5C95.6772 17.5 95.6786 17.5 95.6801 17.5C95.6816 17.5 95.6831 17.5 95.6845 17.5C95.686 17.5 95.6875 17.5 95.6889 17.5C95.6904 17.5 95.6919 17.5 95.6933 17.5C95.6948 17.5 95.6962 17.5 95.6976 17.5C95.6991 17.5 95.7005 17.5 95.702 17.5C95.7034 17.5 95.7048 17.5 95.7062 17.5C95.7077 17.5 95.7091 17.5 95.7105 17.5C95.7119 17.5 95.7133 17.5 95.7147 17.5C95.7161 17.5 95.7175 17.5 95.7189 17.5C95.7203 17.5 95.7217 17.5 95.7231 17.5C95.7244 17.5 95.7258 17.5 95.7272 17.5C95.7286 17.5 95.7299 17.5 95.7313 17.5C95.7326 17.5 95.734 17.5 95.7354 17.5C95.7367 17.5 95.7381 17.5 95.7394 17.5C95.7407 17.5 95.7421 17.5 95.7434 17.5C95.7447 17.5 95.7461 17.5 95.7474 17.5C95.7487 17.5 95.75 17.5 95.7513 17.5C95.7527 17.5 95.754 17.5 95.7553 17.5C95.7566 17.5 95.7579 17.5 95.7592 17.5C95.7604 17.5 95.7617 17.5 95.763 17.5C95.7643 17.5 95.7656 17.5 95.7668 17.5C95.7681 17.5 95.7694 17.5 95.7706 17.5C95.7719 17.5 95.7732 17.5 95.7744 17.5C95.7757 17.5 95.7769 17.5 95.7782 17.5C95.7794 17.5 95.7806 17.5 95.7819 17.5C95.7831 17.5 95.7843 17.5 95.7856 17.5C95.7868 17.5 95.788 17.5 95.7892 17.5C95.7904 17.5 95.7916 17.5 95.7928 17.5C95.794 17.5 95.7952 17.5 95.7964 17.5C95.7976 17.5 95.7988 17.5 95.8 17.5C95.8012 17.5 95.8023 17.5 95.8035 17.5C95.8047 17.5 95.8058 17.5 95.807 17.5C95.8082 17.5 95.8093 17.5 95.8105 17.5C95.8116 17.5 95.8128 17.5 95.8139 17.5C95.815 17.5 95.8162 17.5 95.8173 17.5C95.8184 17.5 95.8196 17.5 95.8207 17.5C95.8218 17.5 95.8229 17.5 95.824 17.5C95.8252 17.5 95.8263 17.5 95.8274 17.5C95.8285 17.5 95.8296 17.5 95.8306 17.5C95.8317 17.5 95.8328 17.5 95.8339 17.5C95.835 17.5 95.8361 17.5 95.8371 17.5C95.8382 17.5 95.8393 17.5 95.8403 17.5C95.8414 17.5 95.8424 17.5 95.8435 17.5C95.8445 17.5 95.8456 17.5 95.8466 17.5C95.8477 17.5 95.8487 17.5 95.8497 17.5C95.8507 17.5 95.8518 17.5 95.8528 17.5C95.8538 17.5 95.8548 17.5 95.8558 17.5C95.8568 17.5 95.8578 17.5 95.8588 17.5C95.8598 17.5 95.8608 17.5 95.8618 17.5C95.8628 17.5 95.8638 17.5 95.8648 17.5C95.8657 17.5 95.8667 17.5 95.8677 17.5C95.8686 17.5 95.8696 17.5 95.8706 17.5C95.8715 17.5 95.8725 17.5 95.8734 17.5C95.8744 17.5 95.8753 17.5 95.8762 17.5C95.8772 17.5 95.8781 17.5 95.879 17.5C95.88 17.5 95.8809 17.5 95.8818 17.5C95.8827 17.5 95.8836 17.5 95.8845 17.5C95.8854 17.5 95.8863 17.5 95.8872 17.5C95.8881 17.5 95.889 17.5 95.8899 17.5C95.8908 17.5 95.8917 17.5 95.8925 17.5C95.8934 17.5 95.8943 17.5 95.8951 17.5C95.896 17.5 95.8969 17.5 95.8977 17.5C95.8986 17.5 95.8994 17.5 95.9003 17.5C95.9011 17.5 95.9019 17.5 95.9028 17.5C95.9036 17.5 95.9044 17.5 95.9053 17.5C95.9061 17.5 95.9069 17.5 95.9077 17.5C95.9085 17.5 95.9093 17.5 95.9101 17.5C95.9109 17.5 95.9117 17.5 95.9125 17.5C95.9133 17.5 95.9141 17.5 95.9149 17.5C95.9156 17.5 95.9164 17.5 95.9172 17.5C95.918 17.5 95.9187 17.5 95.9195 17.5C95.9202 17.5 95.921 17.5 95.9217 17.5C95.9225 17.5 95.9232 17.5 95.924 17.5C95.9247 17.5 95.9254 17.5 95.9262 17.5C95.9269 17.5 95.9276 17.5 95.9283 17.5C95.9291 17.5 95.9298 17.5 95.9305 17.5C95.9312 17.5 95.9319 17.5 95.9326 17.5C95.9333 17.5 95.934 17.5 95.9346 17.5C95.9353 17.5 95.936 17.5 95.9367 17.5C95.9374 17.5 95.938 17.5 95.9387 17.5C95.9394 17.5 95.94 17.5 95.9407 17.5C95.9413 17.5 95.942 17.5 95.9426 17.5C95.9433 17.5 95.9439 17.5 95.9445 17.5C95.9452 17.5 95.9458 17.5 95.9464 17.5C95.947 17.5 95.9476 17.5 95.9483 17.5C95.9489 17.5 95.9495 17.5 95.9501 17.5C95.9507 17.5 95.9513 17.5 95.9519 17.5C95.9524 17.5 95.953 17.5 95.9536 17.5C95.9542 17.5 95.9548 17.5 95.9553 17.5C95.9559 17.5 95.9565 17.5 95.957 17.5C95.9576 17.5 95.9581 17.5 95.9587 17.5C95.9592 17.5 95.9598 17.5 95.9603 17.5C95.9608 17.5 95.9614 17.5 95.9619 17.5C95.9624 17.5 95.9629 17.5 95.9635 17.5C95.964 17.5 95.9645 17.5 95.965 17.5C95.9655 17.5 95.966 17.5 95.9665 17.5C95.967 17.5 95.9675 17.5 95.9679 17.5C95.9684 17.5 95.9689 17.5 95.9694 17.5C95.9698 17.5 95.9703 17.5 95.9708 17.5C95.9712 17.5 95.9717 17.5 95.9721 17.5C95.9726 17.5 95.973 17.5 95.9735 17.5C95.9739 17.5 95.9743 17.5 95.9748 17.5C95.9752 17.5 95.9756 17.5 95.976 17.5C95.9765 17.5 95.9769 17.5 95.9773 17.5C95.9777 17.5 95.9781 17.5 95.9785 17.5C95.9789 17.5 95.9793 17.5 95.9797 17.5C95.98 17.5 95.9804 17.5 95.9808 17.5C95.9812 17.5 95.9815 17.5 95.9819 17.5C95.9823 17.5 95.9826 17.5 95.983 17.5C95.9833 17.5 95.9837 17.5 95.984 17.5C95.9844 17.5 95.9847 17.5 95.985 17.5C95.9854 17.5 95.9857 17.5 95.986 17.5C95.9863 17.5 95.9866 17.5 95.987 17.5C95.9873 17.5 95.9876 17.5 95.9879 17.5C95.9882 17.5 95.9885 17.5 95.9887 17.5C95.989 17.5 95.9893 17.5 95.9896 17.5C95.9899 17.5 95.9901 17.5 95.9904 17.5C95.9907 17.5 95.9909 17.5 95.9912 17.5C95.9914 17.5 95.9917 17.5 95.9919 17.5C95.9922 17.5 95.9924 17.5 95.9926 17.5C95.9929 17.5 95.9931 17.5 95.9933 17.5C95.9936 17.5 95.9938 17.5 95.994 17.5C95.9942 17.5 95.9944 17.5 95.9946 17.5C95.9948 17.5 95.995 17.5 95.9952 17.5C95.9954 17.5 95.9955 17.5 95.9957 17.5C95.9959 17.5 95.9961 17.5 95.9962 17.5C95.9964 17.5 95.9966 17.5 95.9967 17.5C95.9969 17.5 95.997 17.5 95.9972 17.5C95.9973 17.5 95.9975 17.5 95.9976 17.5C95.9977 17.5 95.9979 17.5 95.998 17.5C95.9981 17.5 95.9982 17.5 95.9983 17.5C95.9984 17.5 95.9985 17.5 95.9986 17.5C95.9987 17.5 95.9988 17.5 95.9989 17.5C95.999 17.5 95.9991 17.5 95.9992 17.5C95.9993 17.5 95.9993 17.5 95.9994 17.5C95.9995 17.5 95.9995 17.5 95.9996 17.5C95.9996 17.5 95.9997 17.5 95.9997 17.5C95.9998 17.5 95.9998 17.5 95.9998 17.5C95.9999 17.5 95.9999 17.5 95.9999 17.5C96 17.5 96 17.5 96 17.5C96 17.5 96 17.5 96 15.5C96 13.5 96 13.5 96 13.5C96 13.5 96 13.5 95.9999 13.5C95.9999 13.5 95.9999 13.5 95.9998 13.5C95.9998 13.5 95.9998 13.5 95.9997 13.5C95.9997 13.5 95.9996 13.5 95.9996 13.5C95.9995 13.5 95.9995 13.5 95.9994 13.5C95.9993 13.5 95.9993 13.5 95.9992 13.5C95.9991 13.5 95.999 13.5 95.9989 13.5C95.9988 13.5 95.9987 13.5 95.9986 13.5C95.9985 13.5 95.9984 13.5 95.9983 13.5C95.9982 13.5 95.9981 13.5 95.998 13.5C95.9979 13.5 95.9977 13.5 95.9976 13.5C95.9975 13.5 95.9973 13.5 95.9972 13.5C95.997 13.5 95.9969 13.5 95.9967 13.5C95.9966 13.5 95.9964 13.5 95.9962 13.5C95.9961 13.5 95.9959 13.5 95.9957 13.5C95.9955 13.5 95.9954 13.5 95.9952 13.5C95.995 13.5 95.9948 13.5 95.9946 13.5C95.9944 13.5 95.9942 13.5 95.994 13.5C95.9938 13.5 95.9936 13.5 95.9933 13.5C95.9931 13.5 95.9929 13.5 95.9926 13.5C95.9924 13.5 95.9922 13.5 95.9919 13.5C95.9917 13.5 95.9914 13.5 95.9912 13.5C95.9909 13.5 95.9907 13.5 95.9904 13.5C95.9901 13.5 95.9899 13.5 95.9896 13.5C95.9893 13.5 95.989 13.5 95.9887 13.5C95.9885 13.5 95.9882 13.5 95.9879 13.5C95.9876 13.5 95.9873 13.5 95.987 13.5C95.9866 13.5 95.9863 13.5 95.986 13.5C95.9857 13.5 95.9854 13.5 95.985 13.5C95.9847 13.5 95.9844 13.5 95.984 13.5C95.9837 13.5 95.9833 13.5 95.983 13.5C95.9826 13.5 95.9823 13.5 95.9819 13.5C95.9815 13.5 95.9812 13.5 95.9808 13.5C95.9804 13.5 95.98 13.5 95.9797 13.5C95.9793 13.5 95.9789 13.5 95.9785 13.5C95.9781 13.5 95.9777 13.5 95.9773 13.5C95.9769 13.5 95.9765 13.5 95.976 13.5C95.9756 13.5 95.9752 13.5 95.9748 13.5C95.9743 13.5 95.9739 13.5 95.9735 13.5C95.973 13.5 95.9726 13.5 95.9721 13.5C95.9717 13.5 95.9712 13.5 95.9708 13.5C95.9703 13.5 95.9698 13.5 95.9694 13.5C95.9689 13.5 95.9684 13.5 95.9679 13.5C95.9675 13.5 95.967 13.5 95.9665 13.5C95.966 13.5 95.9655 13.5 95.965 13.5C95.9645 13.5 95.964 13.5 95.9635 13.5C95.9629 13.5 95.9624 13.5 95.9619 13.5C95.9614 13.5 95.9608 13.5 95.9603 13.5C95.9598 13.5 95.9592 13.5 95.9587 13.5C95.9581 13.5 95.9576 13.5 95.957 13.5C95.9565 13.5 95.9559 13.5 95.9553 13.5C95.9548 13.5 95.9542 13.5 95.9536 13.5C95.953 13.5 95.9524 13.5 95.9519 13.5C95.9513 13.5 95.9507 13.5 95.9501 13.5C95.9495 13.5 95.9489 13.5 95.9483 13.5C95.9476 13.5 95.947 13.5 95.9464 13.5C95.9458 13.5 95.9452 13.5 95.9445 13.5C95.9439 13.5 95.9433 13.5 95.9426 13.5C95.942 13.5 95.9413 13.5 95.9407 13.5C95.94 13.5 95.9394 13.5 95.9387 13.5C95.938 13.5 95.9374 13.5 95.9367 13.5C95.936 13.5 95.9353 13.5 95.9346 13.5C95.934 13.5 95.9333 13.5 95.9326 13.5C95.9319 13.5 95.9312 13.5 95.9305 13.5C95.9298 13.5 95.9291 13.5 95.9283 13.5C95.9276 13.5 95.9269 13.5 95.9262 13.5C95.9254 13.5 95.9247 13.5 95.924 13.5C95.9232 13.5 95.9225 13.5 95.9217 13.5C95.921 13.5 95.9202 13.5 95.9195 13.5C95.9187 13.5 95.918 13.5 95.9172 13.5C95.9164 13.5 95.9156 13.5 95.9149 13.5C95.9141 13.5 95.9133 13.5 95.9125 13.5C95.9117 13.5 95.9109 13.5 95.9101 13.5C95.9093 13.5 95.9085 13.5 95.9077 13.5C95.9069 13.5 95.9061 13.5 95.9053 13.5C95.9044 13.5 95.9036 13.5 95.9028 13.5C95.9019 13.5 95.9011 13.5 95.9003 13.5C95.8994 13.5 95.8986 13.5 95.8977 13.5C95.8969 13.5 95.896 13.5 95.8951 13.5C95.8943 13.5 95.8934 13.5 95.8925 13.5C95.8917 13.5 95.8908 13.5 95.8899 13.5C95.889 13.5 95.8881 13.5 95.8872 13.5C95.8863 13.5 95.8854 13.5 95.8845 13.5C95.8836 13.5 95.8827 13.5 95.8818 13.5C95.8809 13.5 95.88 13.5 95.879 13.5C95.8781 13.5 95.8772 13.5 95.8762 13.5C95.8753 13.5 95.8744 13.5 95.8734 13.5C95.8725 13.5 95.8715 13.5 95.8706 13.5C95.8696 13.5 95.8686 13.5 95.8677 13.5C95.8667 13.5 95.8657 13.5 95.8648 13.5C95.8638 13.5 95.8628 13.5 95.8618 13.5C95.8608 13.5 95.8598 13.5 95.8588 13.5C95.8578 13.5 95.8568 13.5 95.8558 13.5C95.8548 13.5 95.8538 13.5 95.8528 13.5C95.8518 13.5 95.8507 13.5 95.8497 13.5C95.8487 13.5 95.8477 13.5 95.8466 13.5C95.8456 13.5 95.8445 13.5 95.8435 13.5C95.8424 13.5 95.8414 13.5 95.8403 13.5C95.8393 13.5 95.8382 13.5 95.8371 13.5C95.8361 13.5 95.835 13.5 95.8339 13.5C95.8328 13.5 95.8317 13.5 95.8306 13.5C95.8296 13.5 95.8285 13.5 95.8274 13.5C95.8263 13.5 95.8252 13.5 95.824 13.5C95.8229 13.5 95.8218 13.5 95.8207 13.5C95.8196 13.5 95.8184 13.5 95.8173 13.5C95.8162 13.5 95.815 13.5 95.8139 13.5C95.8128 13.5 95.8116 13.5 95.8105 13.5C95.8093 13.5 95.8082 13.5 95.807 13.5C95.8058 13.5 95.8047 13.5 95.8035 13.5C95.8023 13.5 95.8012 13.5 95.8 13.5C95.7988 13.5 95.7976 13.5 95.7964 13.5C95.7952 13.5 95.794 13.5 95.7928 13.5C95.7916 13.5 95.7904 13.5 95.7892 13.5C95.788 13.5 95.7868 13.5 95.7856 13.5C95.7843 13.5 95.7831 13.5 95.7819 13.5C95.7806 13.5 95.7794 13.5 95.7782 13.5C95.7769 13.5 95.7757 13.5 95.7744 13.5C95.7732 13.5 95.7719 13.5 95.7706 13.5C95.7694 13.5 95.7681 13.5 95.7668 13.5C95.7656 13.5 95.7643 13.5 95.763 13.5C95.7617 13.5 95.7604 13.5 95.7592 13.5C95.7579 13.5 95.7566 13.5 95.7553 13.5C95.754 13.5 95.7527 13.5 95.7513 13.5C95.75 13.5 95.7487 13.5 95.7474 13.5C95.7461 13.5 95.7447 13.5 95.7434 13.5C95.7421 13.5 95.7407 13.5 95.7394 13.5C95.7381 13.5 95.7367 13.5 95.7354 13.5C95.734 13.5 95.7326 13.5 95.7313 13.5C95.7299 13.5 95.7286 13.5 95.7272 13.5C95.7258 13.5 95.7244 13.5 95.7231 13.5C95.7217 13.5 95.7203 13.5 95.7189 13.5C95.7175 13.5 95.7161 13.5 95.7147 13.5C95.7133 13.5 95.7119 13.5 95.7105 13.5C95.7091 13.5 95.7077 13.5 95.7062 13.5C95.7048 13.5 95.7034 13.5 95.702 13.5C95.7005 13.5 95.6991 13.5 95.6976 13.5C95.6962 13.5 95.6948 13.5 95.6933 13.5C95.6919 13.5 95.6904 13.5 95.6889 13.5C95.6875 13.5 95.686 13.5 95.6845 13.5C95.6831 13.5 95.6816 13.5 95.6801 13.5C95.6786 13.5 95.6772 13.5 95.6757 13.5C95.6742 13.5 95.6727 13.5 95.6712 13.5C95.6697 13.5 95.6682 13.5 95.6667 13.5C95.6652 13.5 95.6636 13.5 95.6621 13.5C95.6606 13.5 95.6591 13.5 95.6575 13.5C95.656 13.5 95.6545 13.5 95.6529 13.5C95.6514 13.5 95.6499 13.5 95.6483 13.5C95.6468 13.5 95.6452 13.5 95.6436 13.5C95.6421 13.5 95.6405 13.5 95.639 13.5C95.6374 13.5 95.6358 13.5 95.6342 13.5C95.6327 13.5 95.6311 13.5 95.6295 13.5C95.6279 13.5 95.6263 13.5 95.6247 13.5C95.6231 13.5 95.6215 13.5 95.6199 13.5C95.6183 13.5 95.6167 13.5 95.6151 13.5C95.6134 13.5 95.6118 13.5 95.6102 13.5C95.6086 13.5 95.6069 13.5 95.6053 13.5C95.6037 13.5 95.602 13.5 95.6004 13.5C95.5987 13.5 95.5971 13.5 95.5954 13.5C95.5938 13.5 95.5921 13.5 95.5904 13.5C95.5888 13.5 95.5871 13.5 95.5854 13.5C95.5838 13.5 95.5821 13.5 95.5804 13.5C95.5787 13.5 95.577 13.5 95.5753 13.5C95.5736 13.5 95.5719 13.5 95.5702 13.5C95.5685 13.5 95.5668 13.5 95.5651 13.5C95.5634 13.5 95.5617 13.5 95.56 13.5C95.5582 13.5 95.5565 13.5 95.5548 13.5C95.553 13.5 95.5513 13.5 95.5496 13.5C95.5478 13.5 95.5461 13.5 95.5443 13.5C95.5426 13.5 95.5408 13.5 95.539 13.5C95.5373 13.5 95.5355 13.5 95.5337 13.5C95.532 13.5 95.5302 13.5 95.5284 13.5C95.5266 13.5 95.5249 13.5 95.5231 13.5C95.5213 13.5 95.5195 13.5 95.5177 13.5C95.5159 13.5 95.5141 13.5 95.5123 13.5C95.5105 13.5 95.5086 13.5 95.5068 13.5C95.505 13.5 95.5032 13.5 95.5014 13.5C95.4995 13.5 95.4977 13.5 95.4959 13.5C95.494 13.5 95.4922 13.5 95.4903 13.5C95.4885 13.5 95.4866 13.5 95.4848 13.5C95.4829 13.5 95.4811 13.5 95.4792 13.5C95.4773 13.5 95.4755 13.5 95.4736 13.5C95.4717 13.5 95.4698 13.5 95.468 13.5C95.4661 13.5 95.4642 13.5 95.4623 13.5C95.4604 13.5 95.4585 13.5 95.4566 13.5C95.4547 13.5 95.4528 13.5 95.4509 13.5C95.449 13.5 95.447 13.5 95.4451 13.5C95.4432 13.5 95.4413 13.5 95.4393 13.5C95.4374 13.5 95.4355 13.5 95.4335 13.5C95.4316 13.5 95.4296 13.5 95.4277 13.5C95.4257 13.5 95.4238 13.5 95.4218 13.5C95.4199 13.5 95.4179 13.5 95.4159 13.5C95.414 13.5 95.412 13.5 95.41 13.5C95.408 13.5 95.4061 13.5 95.4041 13.5C95.4021 13.5 95.4001 13.5 95.3981 13.5C95.3961 13.5 95.3941 13.5 95.3921 13.5C95.3901 13.5 95.3881 13.5 95.3861 13.5C95.384 13.5 95.382 13.5 95.38 13.5C95.378 13.5 95.3759 13.5 95.3739 13.5C95.3719 13.5 95.3698 13.5 95.3678 13.5C95.3658 13.5 95.3637 13.5 95.3617 13.5C95.3596 13.5 95.3575 13.5 95.3555 13.5C95.3534 13.5 95.3514 13.5 95.3493 13.5C95.3472 13.5 95.3451 13.5 95.3431 13.5C95.341 13.5 95.3389 13.5 95.3368 13.5C95.3347 13.5 95.3326 13.5 95.3305 13.5C95.3284 13.5 95.3263 13.5 95.3242 13.5C95.3221 13.5 95.32 13.5 95.3179 13.5C95.3158 13.5 95.3136 13.5 95.3115 13.5C95.3094 13.5 95.3073 13.5 95.3051 13.5C95.303 13.5 95.3008 13.5 95.2987 13.5C95.2966 13.5 95.2944 13.5 95.2923 13.5C95.2901 13.5 95.2879 13.5 95.2858 13.5C95.2836 13.5 95.2815 13.5 95.2793 13.5C95.2771 13.5 95.2749 13.5 95.2728 13.5C95.2706 13.5 95.2684 13.5 95.2662 13.5C95.264 13.5 95.2618 13.5 95.2596 13.5C95.2574 13.5 95.2552 13.5 95.253 13.5C95.2508 13.5 95.2486 13.5 95.2464 13.5C95.2441 13.5 95.2419 13.5 95.2397 13.5C95.2375 13.5 95.2352 13.5 95.233 13.5C95.2308 13.5 95.2285 13.5 95.2263 13.5C95.224 13.5 95.2218 13.5 95.2195 13.5C95.2173 13.5 95.215 13.5 95.2128 13.5C95.2105 13.5 95.2082 13.5 95.206 13.5C95.2037 13.5 95.2014 13.5 95.1991 13.5C95.1969 13.5 95.1946 13.5 95.1923 13.5C95.19 13.5 95.1877 13.5 95.1854 13.5C95.1831 13.5 95.1808 13.5 95.1785 13.5C95.1762 13.5 95.1739 13.5 95.1716 13.5C95.1692 13.5 95.1669 13.5 95.1646 13.5C95.1623 13.5 95.1599 13.5 95.1576 13.5C95.1553 13.5 95.1529 13.5 95.1506 13.5C95.1483 13.5 95.1459 13.5 95.1436 13.5C95.1412 13.5 95.1388 13.5 95.1365 13.5C95.1341 13.5 95.1318 13.5 95.1294 13.5C95.127 13.5 95.1246 13.5 95.1223 13.5C95.1199 13.5 95.1175 13.5 95.1151 13.5C95.1127 13.5 95.1103 13.5 95.1079 13.5C95.1055 13.5 95.1031 13.5 95.1007 13.5C95.0983 13.5 95.0959 13.5 95.0935 13.5C95.0911 13.5 95.0887 13.5 95.0863 13.5C95.0838 13.5 95.0814 13.5 95.079 13.5C95.0765 13.5 95.0741 13.5 95.0717 13.5C95.0692 13.5 95.0668 13.5 95.0643 13.5C95.0619 13.5 95.0594 13.5 95.057 13.5C95.0545 13.5 95.052 13.5 95.0496 13.5C95.0471 13.5 95.0446 13.5 95.0422 13.5C95.0397 13.5 95.0372 13.5 95.0347 13.5C95.0322 13.5 95.0298 13.5 95.0273 13.5C95.0248 13.5 95.0223 13.5 95.0198 13.5C95.0173 13.5 95.0148 13.5 95.0122 13.5C95.0097 13.5 95.0072 13.5 95.0047 13.5C95.0022 13.5 94.9997 13.5 94.9971 13.5C94.9946 13.5 94.9921 13.5 94.9895 13.5C94.987 13.5 94.9845 13.5 94.9819 13.5C94.9794 13.5 94.9768 13.5 94.9743 13.5C94.9717 13.5 94.9691 13.5 94.9666 13.5C94.964 13.5 94.9614 13.5 94.9589 13.5C94.9563 13.5 94.9537 13.5 94.9511 13.5C94.9486 13.5 94.946 13.5 94.9434 13.5C94.9408 13.5 94.9382 13.5 94.9356 13.5C94.933 13.5 94.9304 13.5 94.9278 13.5C94.9252 13.5 94.9226 13.5 94.92 13.5C94.9174 13.5 94.9147 13.5 94.9121 13.5C94.9095 13.5 94.9069 13.5 94.9042 13.5C94.9016 13.5 94.899 13.5 94.8963 13.5C94.8937 13.5 94.891 13.5 94.8884 13.5C94.8857 13.5 94.8831 13.5 94.8804 13.5C94.8778 13.5 94.8751 13.5 94.8724 13.5C94.8698 13.5 94.8671 13.5 94.8644 13.5C94.8617 13.5 94.8591 13.5 94.8564 13.5C94.8537 13.5 94.851 13.5 94.8483 13.5C94.8456 13.5 94.8429 13.5 94.8402 13.5C94.8375 13.5 94.8348 13.5 94.8321 13.5C94.8294 13.5 94.8267 13.5 94.824 13.5C94.8212 13.5 94.8185 13.5 94.8158 13.5C94.8131 13.5 94.8103 13.5 94.8076 13.5C94.8049 13.5 94.8021 13.5 94.7994 13.5C94.7966 13.5 94.7939 13.5 94.7911 13.5C94.7884 13.5 94.7856 13.5 94.7829 13.5C94.7801 13.5 94.7774 13.5 94.7746 13.5C94.7718 13.5 94.769 13.5 94.7663 13.5C94.7635 13.5 94.7607 13.5 94.7579 13.5C94.7551 13.5 94.7523 13.5 94.7495 13.5C94.7468 13.5 94.744 13.5 94.7412 13.5C94.7383 13.5 94.7355 13.5 94.7327 13.5C94.7299 13.5 94.7271 13.5 94.7243 13.5C94.7215 13.5 94.7186 13.5 94.7158 13.5C94.713 13.5 94.7102 13.5 94.7073 13.5C94.7045 13.5 94.7016 13.5 94.6988 13.5C94.6959 13.5 94.6931 13.5 94.6902 13.5C94.6874 13.5 94.6845 13.5 94.6817 13.5C94.6788 13.5 94.6759 13.5 94.6731 13.5C94.6702 13.5 94.6673 13.5 94.6645 13.5C94.6616 13.5 94.6587 13.5 94.6558 13.5C94.6529 13.5 94.65 13.5 94.6471 13.5C94.6442 13.5 94.6413 13.5 94.6384 13.5C94.6355 13.5 94.6326 13.5 94.6297 13.5C94.6268 13.5 94.6239 13.5 94.621 13.5C94.6181 13.5 94.6151 13.5 94.6122 13.5C94.6093 13.5 94.6063 13.5 94.6034 13.5C94.6005 13.5 94.5975 13.5 94.5946 13.5C94.5916 13.5 94.5887 13.5 94.5857 13.5C94.5828 13.5 94.5798 13.5 94.5769 13.5C94.5739 13.5 94.5709 13.5 94.568 13.5C94.565 13.5 94.562 13.5 94.559 13.5C94.5561 13.5 94.5531 13.5 94.5501 13.5C94.5471 13.5 94.5441 13.5 94.5411 13.5C94.5381 13.5 94.5351 13.5 94.5321 13.5C94.5291 13.5 94.5261 13.5 94.5231 13.5C94.5201 13.5 94.5171 13.5 94.5141 13.5C94.5111 13.5 94.508 13.5 94.505 13.5C94.502 13.5 94.499 13.5 94.4959 13.5C94.4929 13.5 94.4898 13.5 94.4868 13.5C94.4838 13.5 94.4807 13.5 94.4777 13.5C94.4746 13.5 94.4716 13.5 94.4685 13.5C94.4654 13.5 94.4624 13.5 94.4593 13.5C94.4562 13.5 94.4532 13.5 94.4501 13.5C94.447 13.5 94.4439 13.5 94.4409 13.5C94.4378 13.5 94.4347 13.5 94.4316 13.5C94.4285 13.5 94.4254 13.5 94.4223 13.5C94.4192 13.5 94.4161 13.5 94.413 13.5C94.4099 13.5 94.4068 13.5 94.4037 13.5C94.4005 13.5 94.3974 13.5 94.3943 13.5C94.3912 13.5 94.388 13.5 94.3849 13.5C94.3818 13.5 94.3786 13.5 94.3755 13.5C94.3724 13.5 94.3692 13.5 94.3661 13.5C94.3629 13.5 94.3598 13.5 94.3566 13.5C94.3535 13.5 94.3503 13.5 94.3471 13.5C94.344 13.5 94.3408 13.5 94.3376 13.5C94.3345 13.5 94.3313 13.5 94.3281 13.5C94.3249 13.5 94.3217 13.5 94.3186 13.5C94.3154 13.5 94.3122 13.5 94.309 13.5C94.3058 13.5 94.3026 13.5 94.2994 13.5C94.2962 13.5 94.293 13.5 94.2898 13.5C94.2865 13.5 94.2833 13.5 94.2801 13.5C94.2769 13.5 94.2737 13.5 94.2704 13.5C94.2672 13.5 94.264 13.5 94.2607 13.5C94.2575 13.5 94.2543 13.5 94.251 13.5C94.2478 13.5 94.2445 13.5 94.2413 13.5C94.238 13.5 94.2348 13.5 94.2315 13.5C94.2283 13.5 94.225 13.5 94.2217 13.5C94.2185 13.5 94.2152 13.5 94.2119 13.5C94.2086 13.5 94.2054 13.5 94.2021 13.5C94.1988 13.5 94.1955 13.5 94.1922 13.5C94.1889 13.5 94.1856 13.5 94.1823 13.5C94.179 13.5 94.1757 13.5 94.1724 13.5C94.1691 13.5 94.1658 13.5 94.1625 13.5C94.1592 13.5 94.1559 13.5 94.1525 13.5C94.1492 13.5 94.1459 13.5 94.1426 13.5C94.1392 13.5 94.1359 13.5 94.1326 13.5C94.1292 13.5 94.1259 13.5 94.1225 13.5C94.1192 13.5 94.1159 13.5 94.1125 13.5C94.1091 13.5 94.1058 13.5 94.1024 13.5C94.0991 13.5 94.0957 13.5 94.0923 13.5C94.089 13.5 94.0856 13.5 94.0822 13.5C94.0788 13.5 94.0755 13.5 94.0721 13.5C94.0687 13.5 94.0653 13.5 94.0619 13.5C94.0585 13.5 94.0551 13.5 94.0517 13.5C94.0483 13.5 94.0449 13.5 94.0415 13.5C94.0381 13.5 94.0347 13.5 94.0313 13.5C94.0279 13.5 94.0245 13.5 94.021 13.5C94.0176 13.5 94.0142 13.5 94.0107 13.5C94.0073 13.5 94.0039 13.5 94.0004 13.5C93.997 13.5 93.9936 13.5 93.9901 13.5C93.9867 13.5 93.9832 13.5 93.9798 13.5C93.9763 13.5 93.9729 13.5 93.9694 13.5C93.9659 13.5 93.9625 13.5 93.959 13.5C93.9555 13.5 93.9521 13.5 93.9486 13.5C93.9451 13.5 93.9416 13.5 93.9382 13.5C93.9347 13.5 93.9312 13.5 93.9277 13.5C93.9242 13.5 93.9207 13.5 93.9172 13.5C93.9137 13.5 93.9102 13.5 93.9067 13.5C93.9032 13.5 93.8997 13.5 93.8962 13.5C93.8927 13.5 93.8891 13.5 93.8856 13.5C93.8821 13.5 93.8786 13.5 93.875 13.5C93.8715 13.5 93.868 13.5 93.8644 13.5C93.8609 13.5 93.8574 13.5 93.8538 13.5C93.8503 13.5 93.8467 13.5 93.8432 13.5C93.8396 13.5 93.8361 13.5 93.8325 13.5C93.829 13.5 93.8254 13.5 93.8218 13.5C93.8183 13.5 93.8147 13.5 93.8111 13.5C93.8075 13.5 93.804 13.5 93.8004 13.5C93.7968 13.5 93.7932 13.5 93.7896 13.5C93.786 13.5 93.7824 13.5 93.7788 13.5C93.7752 13.5 93.7716 13.5 93.768 13.5C93.7644 13.5 93.7608 13.5 93.7572 13.5C93.7536 13.5 93.75 13.5 93.7464 13.5C93.7428 13.5 93.7391 13.5 93.7355 13.5C93.7319 13.5 93.7283 13.5 93.7246 13.5C93.721 13.5 93.7173 13.5 93.7137 13.5C93.7101 13.5 93.7064 13.5 93.7028 13.5C93.6991 13.5 93.6955 13.5 93.6918 13.5C93.6882 13.5 93.6845 13.5 93.6808 13.5C93.6772 13.5 93.6735 13.5 93.6698 13.5C93.6662 13.5 93.6625 13.5 93.6588 13.5C93.6551 13.5 93.6515 13.5 93.6478 13.5C93.6441 13.5 93.6404 13.5 93.6367 13.5C93.633 13.5 93.6293 13.5 93.6256 13.5C93.6219 13.5 93.6182 13.5 93.6145 13.5C93.6108 13.5 93.6071 13.5 93.6034 13.5C93.5997 13.5 93.5959 13.5 93.5922 13.5C93.5885 13.5 93.5848 13.5 93.581 13.5C93.5773 13.5 93.5736 13.5 93.5698 13.5C93.5661 13.5 93.5624 13.5 93.5586 13.5C93.5549 13.5 93.5511 13.5 93.5474 13.5C93.5436 13.5 93.5399 13.5 93.5361 13.5C93.5324 13.5 93.5286 13.5 93.5248 13.5C93.5211 13.5 93.5173 13.5 93.5135 13.5C93.5097 13.5 93.506 13.5 93.5022 13.5C93.4984 13.5 93.4946 13.5 93.4908 13.5C93.4871 13.5 93.4833 13.5 93.4795 13.5C93.4757 13.5 93.4719 13.5 93.4681 13.5C93.4643 13.5 93.4605 13.5 93.4567 13.5C93.4529 13.5 93.449 13.5 93.4452 13.5C93.4414 13.5 93.4376 13.5 93.4338 13.5C93.4299 13.5 93.4261 13.5 93.4223 13.5C93.4185 13.5 93.4146 13.5 93.4108 13.5C93.4069 13.5 93.4031 13.5 93.3993 13.5C93.3954 13.5 93.3916 13.5 93.3877 13.5C93.3839 13.5 93.38 13.5 93.3762 13.5C93.3723 13.5 93.3684 13.5 93.3646 13.5C93.3607 13.5 93.3568 13.5 93.353 13.5C93.3491 13.5 93.3452 13.5 93.3413 13.5C93.3375 13.5 93.3336 13.5 93.3297 13.5C93.3258 13.5 93.3219 13.5 93.318 13.5C93.3141 13.5 93.3102 13.5 93.3063 13.5C93.3024 13.5 93.2985 13.5 93.2946 13.5C93.2907 13.5 93.2868 13.5 93.2829 13.5C93.279 13.5 93.275 13.5 93.2711 13.5C93.2672 13.5 93.2633 13.5 93.2593 13.5C93.2554 13.5 93.2515 13.5 93.2475 13.5C93.2436 13.5 93.2397 13.5 93.2357 13.5C93.2318 13.5 93.2278 13.5 93.2239 13.5C93.2199 13.5 93.216 13.5 93.212 13.5C93.2081 13.5 93.2041 13.5 93.2001 13.5C93.1962 13.5 93.1922 13.5 93.1882 13.5C93.1843 13.5 93.1803 13.5 93.1763 13.5C93.1723 13.5 93.1683 13.5 93.1644 13.5C93.1604 13.5 93.1564 13.5 93.1524 13.5C93.1484 13.5 93.1444 13.5 93.1404 13.5C93.1364 13.5 93.1324 13.5 93.1284 13.5C93.1244 13.5 93.1204 13.5 93.1164 13.5C93.1124 13.5 93.1083 13.5 93.1043 13.5C93.1003 13.5 93.0963 13.5 93.0923 13.5C93.0882 13.5 93.0842 13.5 93.0802 13.5C93.0761 13.5 93.0721 13.5 93.0681 13.5C93.064 13.5 93.06 13.5 93.0559 13.5C93.0519 13.5 93.0478 13.5 93.0438 13.5C93.0397 13.5 93.0357 13.5 93.0316 13.5C93.0275 13.5 93.0235 13.5 93.0194 13.5C93.0153 13.5 93.0113 13.5 93.0072 13.5C93.0031 13.5 92.9991 13.5 92.995 13.5C92.9909 13.5 92.9868 13.5 92.9827 13.5C92.9786 13.5 92.9745 13.5 92.9704 13.5C92.9663 13.5 92.9622 13.5 92.9581 13.5C92.954 13.5 92.9499 13.5 92.9458 13.5C92.9417 13.5 92.9376 13.5 92.9335 13.5C92.9294 13.5 92.9253 13.5 92.9211 13.5C92.917 13.5 92.9129 13.5 92.9088 13.5C92.9046 13.5 92.9005 13.5 92.8964 13.5C92.8922 13.5 92.8881 13.5 92.884 13.5C92.8798 13.5 92.8757 13.5 92.8715 13.5C92.8674 13.5 92.8632 13.5 92.8591 13.5C92.8549 13.5 92.8508 13.5 92.8466 13.5C92.8424 13.5 92.8383 13.5 92.8341 13.5C92.8299 13.5 92.8258 13.5 92.8216 13.5C92.8174 13.5 92.8132 13.5 92.809 13.5C92.8049 13.5 92.8007 13.5 92.7965 13.5C92.7923 13.5 92.7881 13.5 92.7839 13.5C92.7797 13.5 92.7755 13.5 92.7713 13.5C92.7671 13.5 92.7629 13.5 92.7587 13.5C92.7545 13.5 92.7503 13.5 92.7461 13.5C92.7418 13.5 92.7376 13.5 92.7334 13.5C92.7292 13.5 92.725 13.5 92.7207 13.5C92.7165 13.5 92.7123 13.5 92.708 13.5C92.7038 13.5 92.6996 13.5 92.6953 13.5C92.6911 13.5 92.6868 13.5 92.6826 13.5C92.6783 13.5 92.6741 13.5 92.6698 13.5C92.6656 13.5 92.6613 13.5 92.6571 13.5C92.6528 13.5 92.6485 13.5 92.6443 13.5C92.64 13.5 92.6357 13.5 92.6315 13.5C92.6272 13.5 92.6229 13.5 92.6186 13.5C92.6143 13.5 92.6101 13.5 92.6058 13.5C92.6015 13.5 92.5972 13.5 92.5929 13.5C92.5886 13.5 92.5843 13.5 92.58 13.5C92.5757 13.5 92.5714 13.5 92.5671 13.5C92.5628 13.5 92.5585 13.5 92.5542 13.5C92.5499 13.5 92.5455 13.5 92.5412 13.5C92.5369 13.5 92.5326 13.5 92.5283 13.5C92.5239 13.5 92.5196 13.5 92.5153 13.5C92.5109 13.5 92.5066 13.5 92.5023 13.5C92.4979 13.5 92.4936 13.5 92.4892 13.5C92.4849 13.5 92.4805 13.5 92.4762 13.5C92.4718 13.5 92.4675 13.5 92.4631 13.5C92.4588 13.5 92.4544 13.5 92.45 13.5C92.4457 13.5 92.4413 13.5 92.4369 13.5C92.4326 13.5 92.4282 13.5 92.4238 13.5C92.4194 13.5 92.4151 13.5 92.4107 13.5C92.4063 13.5 92.4019 13.5 92.3975 13.5C92.3931 13.5 92.3887 13.5 92.3843 13.5C92.3799 13.5 92.3755 13.5 92.3711 13.5C92.3667 13.5 92.3623 13.5 92.3579 13.5C92.3535 13.5 92.3491 13.5 92.3447 13.5C92.3403 13.5 92.3358 13.5 92.3314 13.5C92.327 13.5 92.3226 13.5 92.3182 13.5C92.3137 13.5 92.3093 13.5 92.3049 13.5C92.3004 13.5 92.296 13.5 92.2915 13.5C92.2871 13.5 92.2827 13.5 92.2782 13.5C92.2738 13.5 92.2693 13.5 92.2649 13.5C92.2604 13.5 92.256 13.5 92.2515 13.5V17.5Z" fill="#5030E5" fill-opacity="0.2"/>
</svg>
