<svg width="48" height="48" viewBox="0 0 48 48" fill="none" xmlns="http://www.w3.org/2000/svg">
<g clip-path="url(#clip0_5_666)">
<path d="M36.5999 11.42C35.8199 10.64 34.5599 10.64 33.7799 11.42L23.9999 21.18L14.2199 11.4C13.4399 10.62 12.1799 10.62 11.3999 11.4C10.6199 12.18 10.6199 13.44 11.3999 14.22L21.1799 24L11.3999 33.78C10.6199 34.56 10.6199 35.82 11.3999 36.6C12.1799 37.38 13.4399 37.38 14.2199 36.6L23.9999 26.82L33.7799 36.6C34.5599 37.38 35.8199 37.38 36.5999 36.6C37.3799 35.82 37.3799 34.56 36.5999 33.78L26.8199 24L36.5999 14.22C37.3599 13.46 37.3599 12.18 36.5999 11.42Z" fill="black"/>
</g>
<defs>
<clipPath id="clip0_5_666">
<rect width="48" height="48" fill="white"/>
</clipPath>
</defs>
</svg>
