<svg width="178" height="178" viewBox="0 0 178 178" fill="none" xmlns="http://www.w3.org/2000/svg">
<g clip-path="url(#clip0_56_651)">
<path d="M66.7499 87.1458C61.6324 87.1458 57.4791 91.2991 57.4791 96.4166C57.4791 101.534 61.6324 105.687 66.7499 105.687C71.8674 105.687 76.0208 101.534 76.0208 96.4166C76.0208 91.2991 71.8674 87.1458 66.7499 87.1458ZM111.25 87.1458C106.132 87.1458 101.979 91.2991 101.979 96.4166C101.979 101.534 106.132 105.687 111.25 105.687C116.367 105.687 120.521 101.534 120.521 96.4166C120.521 91.2991 116.367 87.1458 111.25 87.1458ZM88.9999 14.8333C48.0599 14.8333 14.8333 48.06 14.8333 89C14.8333 129.94 48.0599 163.167 88.9999 163.167C129.94 163.167 163.167 129.94 163.167 89C163.167 48.06 129.94 14.8333 88.9999 14.8333ZM88.9999 148.333C56.2924 148.333 29.6666 121.707 29.6666 89C29.6666 86.8491 29.8149 84.6983 30.0374 82.6216C47.5408 74.8341 61.4099 60.52 68.6783 42.7941C82.1024 61.7808 104.204 74.1666 129.198 74.1666C134.983 74.1666 140.546 73.4991 145.886 72.2383C147.443 77.5041 148.333 83.1408 148.333 89C148.333 121.707 121.707 148.333 88.9999 148.333Z" fill="#5030E5" fill-opacity="0.2"/>
</g>
<defs>
<clipPath id="clip0_56_651">
<rect width="178" height="178" fill="white"/>
</clipPath>
</defs>
</svg>
